<?xml version="1.0" encoding="UTF-8"?> <svg xmlns="http://www.w3.org/2000/svg" xmlns:xlink="http://www.w3.org/1999/xlink" viewBox="0 0 628.58 703.26"> <defs> <style>.cls-1{fill:none;}.cls-2{isolation:isolate;}.cls-3{fill:#004a61;}.cls-4{fill:#00425c;}.cls-5{fill:#0080a3;}.cls-6{fill:#05cbe9;}.cls-19,.cls-26,.cls-64,.cls-7{fill:#1be1f0;}.cls-8{fill:#37ffff;}.cls-9{fill:#020507;}.cls-10,.cls-28{fill:#233e66;}.cls-11{fill:#5799c0;}.cls-12,.cls-20{fill:#fff;}.cls-13,.cls-30{fill:#00d9ff;}.cls-14,.cls-24{fill:#00436e;}.cls-15,.cls-21{fill:#d7f1f2;}.cls-16,.cls-25{fill:#0090b2;}.cls-17{fill:#113256;}.cls-18,.cls-23{fill:#00002f;}.cls-19,.cls-20,.cls-21,.cls-22,.cls-23,.cls-24,.cls-25,.cls-26,.cls-27,.cls-28,.cls-29,.cls-30{fill-rule:evenodd;}.cls-19{opacity:0.52;}.cls-22{fill:#a6c9c9;}.cls-27{fill:#e6e6e6;}.cls-29{fill:#0068b3;}.cls-31{clip-path:url(#clip-path);}.cls-32,.cls-33,.cls-34,.cls-35,.cls-36,.cls-37,.cls-38,.cls-39,.cls-40,.cls-41,.cls-44,.cls-45,.cls-46,.cls-47,.cls-48,.cls-49,.cls-50,.cls-51,.cls-52,.cls-53{mix-blend-mode:hard-light;}.cls-32{fill:url(#Degradado_sin_nombre_519);}.cls-33{fill:url(#Degradado_sin_nombre_519-2);}.cls-34{fill:url(#Degradado_sin_nombre_519-3);}.cls-35{fill:url(#Degradado_sin_nombre_519-4);}.cls-36{fill:url(#Degradado_sin_nombre_558);}.cls-37{fill:url(#Degradado_sin_nombre_519-5);}.cls-38{fill:url(#Degradado_sin_nombre_519-6);}.cls-39{fill:url(#Degradado_sin_nombre_519-7);}.cls-40{fill:url(#Degradado_sin_nombre_519-8);}.cls-41{fill:url(#Degradado_sin_nombre_799);}.cls-42{fill:url(#Degradado_sin_nombre_830);}.cls-43{clip-path:url(#clip-path-2);}.cls-44{fill:url(#Degradado_sin_nombre_519-9);}.cls-45{fill:url(#Degradado_sin_nombre_519-10);}.cls-46{fill:url(#Degradado_sin_nombre_519-11);}.cls-47{fill:url(#Degradado_sin_nombre_519-12);}.cls-48{fill:url(#Degradado_sin_nombre_558-2);}.cls-49{fill:url(#Degradado_sin_nombre_519-13);}.cls-50{fill:url(#Degradado_sin_nombre_519-14);}.cls-51{fill:url(#Degradado_sin_nombre_519-15);}.cls-52{fill:url(#Degradado_sin_nombre_519-16);}.cls-53{fill:url(#Degradado_sin_nombre_799-2);}.cls-54{fill:url(#Degradado_sin_nombre_830-2);}.cls-55{opacity:0.7;fill:url(#Áåçûìÿííûé_ãðàäèåíò_1159);}.cls-55,.cls-65,.cls-66,.cls-67,.cls-68{mix-blend-mode:screen;}.cls-56{mix-blend-mode:multiply;}.cls-57{fill:url(#Áåçûìÿííûé_ãðàäèåíò_971);}.cls-58{fill:#014965;}.cls-59{fill:url(#Áåçûìÿííûé_ãðàäèåíò_965);}.cls-60{fill:url(#Áåçûìÿííûé_ãðàäèåíò_977);}.cls-61{fill:#014c69;}.cls-61,.cls-63,.cls-65,.cls-67,.cls-68{opacity:0.63;}.cls-62{fill:#15c3d1;opacity:0.8;}.cls-63{fill:#013247;}.cls-64{opacity:0.24;mix-blend-mode:overlay;}.cls-65{fill:#1cb4c0;}.cls-66{fill:url(#Áåçûìÿííûé_ãðàäèåíò_1063);}.cls-67{fill:url(#Áåçûìÿííûé_ãðàäèåíò_1106);}.cls-68{fill:url(#Áåçûìÿííûé_ãðàäèåíò_955);}.cls-69{fill:#001d2f;}.cls-70{fill:url(#linear-gradient);}.cls-71{fill:url(#Áåçûìÿííûé_ãðàäèåíò_971-3);}.cls-72{fill:url(#Áåçûìÿííûé_ãðàäèåíò_971-4);}.cls-73{fill:#606060;}</style> <clipPath id="clip-path"> <rect class="cls-1" x="153.89" y="222.81" width="265.68" height="183.6"></rect> </clipPath> <radialGradient id="Degradado_sin_nombre_519" cx="2979.34" cy="-10711.54" r="101.79" gradientTransform="translate(1143.42 2867.09) rotate(-90) scale(0.86 0.08)" gradientUnits="userSpaceOnUse"> <stop offset="0" stop-color="#dceaff"></stop> <stop offset="0.04" stop-color="#d5e8ff" stop-opacity="0.86"></stop> <stop offset="0.1" stop-color="#cbe6ff" stop-opacity="0.68"></stop> <stop offset="0.16" stop-color="#c2e3ff" stop-opacity="0.52"></stop> <stop offset="0.23" stop-color="#bae1ff" stop-opacity="0.38"></stop> <stop offset="0.31" stop-color="#b4e0ff" stop-opacity="0.26"></stop> <stop offset="0.39" stop-color="#afdeff" stop-opacity="0.16"></stop> <stop offset="0.48" stop-color="#abddff" stop-opacity="0.09"></stop> <stop offset="0.59" stop-color="#a8ddff" stop-opacity="0.04"></stop> <stop offset="0.72" stop-color="#a6dcff" stop-opacity="0.01"></stop> <stop offset="1" stop-color="#a6dcff" stop-opacity="0"></stop> </radialGradient> <radialGradient id="Degradado_sin_nombre_519-2" cx="164.79" cy="17485.49" r="101.79" gradientTransform="translate(435.29 1703.34) rotate(180) scale(0.86 0.08)" xlink:href="#Degradado_sin_nombre_519"></radialGradient> <radialGradient id="Degradado_sin_nombre_519-3" cx="2187.98" cy="13058.33" r="101.84" gradientTransform="translate(885.83 2373.02) rotate(-135) scale(0.86 0.08)" xlink:href="#Degradado_sin_nombre_519"></radialGradient> <radialGradient id="Degradado_sin_nombre_519-4" cx="-2037.85" cy="8959.58" r="101.84" gradientTransform="translate(-437.21 2050.46) rotate(135) scale(0.86 0.08)" xlink:href="#Degradado_sin_nombre_519"></radialGradient> <radialGradient id="Degradado_sin_nombre_558" cx="293.88" cy="315.53" r="72.04" gradientTransform="translate(0 -0.93)" gradientUnits="userSpaceOnUse"> <stop offset="0" stop-color="#8ad3ff"></stop> <stop offset="0.04" stop-color="#74d0ff" stop-opacity="0.84"></stop> <stop offset="0.1" stop-color="#5dcdff" stop-opacity="0.66"></stop> <stop offset="0.16" stop-color="#48cbff" stop-opacity="0.5"></stop> <stop offset="0.23" stop-color="#36c8ff" stop-opacity="0.37"></stop> <stop offset="0.3" stop-color="#27c6ff" stop-opacity="0.25"></stop> <stop offset="0.37" stop-color="#1ac5ff" stop-opacity="0.16"></stop> <stop offset="0.46" stop-color="#11c3ff" stop-opacity="0.09"></stop> <stop offset="0.57" stop-color="#0ac3ff" stop-opacity="0.04"></stop> <stop offset="0.7" stop-color="#06c2ff" stop-opacity="0.01"></stop> <stop offset="1" stop-color="#05c2ff" stop-opacity="0"></stop> </radialGradient> <radialGradient id="Degradado_sin_nombre_519-5" cx="1200.8" cy="-102542.3" r="76.71" gradientTransform="matrix(0.8, -0.32, 0.01, 0.02, 218.78, 2908.91)" xlink:href="#Degradado_sin_nombre_519"></radialGradient> <radialGradient id="Degradado_sin_nombre_519-6" cx="1500.53" cy="-98165.7" r="76.71" gradientTransform="matrix(-0.8, -0.32, -0.01, 0.02, 644.68, 2908.91)" xlink:href="#Degradado_sin_nombre_519"></radialGradient> <radialGradient id="Degradado_sin_nombre_519-7" cx="3108.04" cy="39264.45" r="76.71" gradientTransform="matrix(-0.32, -0.8, 0.02, -0.01, 426.1, 3127.49)" xlink:href="#Degradado_sin_nombre_519"></radialGradient> <radialGradient id="Degradado_sin_nombre_519-8" cx="-2533.58" cy="-43113.72" r="76.71" gradientTransform="matrix(-0.32, 0.8, 0.02, 0.01, 426.1, 2701.59)" xlink:href="#Degradado_sin_nombre_519"></radialGradient> <radialGradient id="Degradado_sin_nombre_799" cx="293.59" cy="315.35" r="49.41" gradientTransform="translate(309.17 -115.57) rotate(45)" gradientUnits="userSpaceOnUse"> <stop offset="0" stop-color="#8ad3ff"></stop> <stop offset="0.07" stop-color="#75d0ff" stop-opacity="0.84"></stop> <stop offset="0.16" stop-color="#5bcdff" stop-opacity="0.65"></stop> <stop offset="0.26" stop-color="#44caff" stop-opacity="0.47"></stop> <stop offset="0.36" stop-color="#31c8ff" stop-opacity="0.33"></stop> <stop offset="0.47" stop-color="#21c6ff" stop-opacity="0.21"></stop> <stop offset="0.58" stop-color="#14c4ff" stop-opacity="0.12"></stop> <stop offset="0.7" stop-color="#0cc3ff" stop-opacity="0.05"></stop> <stop offset="0.83" stop-color="#07c2ff" stop-opacity="0.01"></stop> <stop offset="1" stop-color="#05c2ff" stop-opacity="0"></stop> </radialGradient> <radialGradient id="Degradado_sin_nombre_830" cx="293.36" cy="315.2" r="30.62" gradientTransform="translate(0 -0.93)" gradientUnits="userSpaceOnUse"> <stop offset="0" stop-color="#c4fdff"></stop> <stop offset="0.02" stop-color="#bbfaff" stop-opacity="0.95"></stop> <stop offset="0.16" stop-color="#8cecff" stop-opacity="0.71"></stop> <stop offset="0.3" stop-color="#63dfff" stop-opacity="0.49"></stop> <stop offset="0.43" stop-color="#41d5ff" stop-opacity="0.31"></stop> <stop offset="0.56" stop-color="#27ccff" stop-opacity="0.18"></stop> <stop offset="0.68" stop-color="#14c7ff" stop-opacity="0.08"></stop> <stop offset="0.79" stop-color="#09c3ff" stop-opacity="0.02"></stop> <stop offset="0.87" stop-color="#05c2ff" stop-opacity="0"></stop> </radialGradient> <clipPath id="clip-path-2"> <rect class="cls-1" x="209.4" y="222.08" width="265.68" height="183.6"></rect> </clipPath> <radialGradient id="Degradado_sin_nombre_519-9" cx="2980.2" cy="-10012.35" r="101.79" xlink:href="#Degradado_sin_nombre_519"></radialGradient> <radialGradient id="Degradado_sin_nombre_519-10" cx="99.95" cy="17494.67" r="101.79" gradientTransform="translate(435.29 1703.34) rotate(180) scale(0.86 0.08)" xlink:href="#Degradado_sin_nombre_519"></radialGradient> <radialGradient id="Degradado_sin_nombre_519-11" cx="2142.73" cy="13559.63" r="101.84" gradientTransform="translate(885.83 2373.02) rotate(-135) scale(0.86 0.08)" xlink:href="#Degradado_sin_nombre_519"></radialGradient> <radialGradient id="Degradado_sin_nombre_519-12" cx="-2084.3" cy="8471.28" r="101.84" gradientTransform="translate(-437.21 2050.46) rotate(135) scale(0.86 0.08)" xlink:href="#Degradado_sin_nombre_519"></radialGradient> <radialGradient id="Degradado_sin_nombre_558-2" cx="349.4" cy="314.8" r="72.04" xlink:href="#Degradado_sin_nombre_558"></radialGradient> <radialGradient id="Degradado_sin_nombre_519-13" cx="1261.35" cy="-101691.84" r="76.71" gradientTransform="matrix(0.8, -0.32, 0.01, 0.02, 218.78, 2908.91)" xlink:href="#Degradado_sin_nombre_519"></radialGradient> <radialGradient id="Degradado_sin_nombre_519-14" cx="1440.6" cy="-99074.48" r="76.71" gradientTransform="matrix(-0.8, -0.32, -0.01, 0.02, 644.68, 2908.91)" xlink:href="#Degradado_sin_nombre_519"></radialGradient> <radialGradient id="Degradado_sin_nombre_519-15" cx="3084.85" cy="41495.96" r="76.71" gradientTransform="matrix(-0.32, -0.8, 0.02, -0.01, 426.1, 3127.49)" xlink:href="#Degradado_sin_nombre_519"></radialGradient> <radialGradient id="Degradado_sin_nombre_519-16" cx="-2558.36" cy="-40905.31" r="76.71" gradientTransform="matrix(-0.32, 0.8, 0.02, 0.01, 426.1, 2701.59)" xlink:href="#Degradado_sin_nombre_519"></radialGradient> <radialGradient id="Degradado_sin_nombre_799-2" cx="349.11" cy="314.62" r="49.41" gradientTransform="translate(324.91 -155.04) rotate(45)" xlink:href="#Degradado_sin_nombre_799"></radialGradient> <radialGradient id="Degradado_sin_nombre_830-2" cx="348.87" cy="314.47" r="30.62" xlink:href="#Degradado_sin_nombre_830"></radialGradient> <radialGradient id="Áåçûìÿííûé_ãðàäèåíò_1159" cx="492.72" cy="398.38" r="9.08" gradientUnits="userSpaceOnUse"> <stop offset="0" stop-color="#00acb4"></stop> <stop offset="1"></stop> </radialGradient> <linearGradient id="Áåçûìÿííûé_ãðàäèåíò_971" x1="171.03" y1="582.74" x2="151.07" y2="638.71" gradientUnits="userSpaceOnUse"> <stop offset="0" stop-color="#00839e"></stop> <stop offset="0.28" stop-color="#00627b"></stop> <stop offset="0.57" stop-color="#01485e"></stop> <stop offset="0.82" stop-color="#01384d"></stop> <stop offset="1" stop-color="#013247"></stop> </linearGradient> <radialGradient id="Áåçûìÿííûé_ãðàäèåíò_965" cx="314.28" cy="613.83" r="367.78" gradientUnits="userSpaceOnUse"> <stop offset="0" stop-color="#00839e"></stop> <stop offset="0.28" stop-color="#015d79"></stop> <stop offset="0.4" stop-color="#014c69"></stop> <stop offset="0.99" stop-color="#013247"></stop> </radialGradient> <radialGradient id="Áåçûìÿííûé_ãðàäèåíò_977" cx="314.29" cy="602.92" r="232.48" gradientUnits="userSpaceOnUse"> <stop offset="0" stop-color="#1be1f0"></stop> <stop offset="0.45" stop-color="#1cb4c0"></stop> <stop offset="1" stop-color="#014c69"></stop> </radialGradient> <radialGradient id="Áåçûìÿííûé_ãðàäèåíò_1063" cx="335.36" cy="585.71" r="356.79" gradientTransform="translate(-31.96) scale(1.03 1)" gradientUnits="userSpaceOnUse"> <stop offset="0" stop-color="#1cb4c0"></stop> <stop offset="0.18" stop-color="#15858e"></stop> <stop offset="0.38" stop-color="#0d565c"></stop> <stop offset="0.57" stop-color="#083134"></stop> <stop offset="0.74" stop-color="#031617"></stop> <stop offset="0.89" stop-color="#010606"></stop> <stop offset="1"></stop> </radialGradient> <radialGradient id="Áåçûìÿííûé_ãðàäèåíò_1106" cx="335.36" cy="586.34" r="374.6" gradientTransform="translate(-31.96) scale(1.03 1)" gradientUnits="userSpaceOnUse"> <stop offset="0" stop-color="#1be1f0"></stop> <stop offset="0.1" stop-color="#17bfcc"></stop> <stop offset="0.28" stop-color="#10868f"></stop> <stop offset="0.46" stop-color="#0a565c"></stop> <stop offset="0.62" stop-color="#063134"></stop> <stop offset="0.77" stop-color="#031617"></stop> <stop offset="0.9" stop-color="#010606"></stop> <stop offset="1"></stop> </radialGradient> <radialGradient id="Áåçûìÿííûé_ãðàäèåíò_955" cx="335.36" cy="536.09" r="215.83" gradientTransform="translate(-31.96) scale(1.03 1)" gradientUnits="userSpaceOnUse"> <stop offset="0" stop-color="#1be1f0"></stop> <stop offset="0.27" stop-color="#1bdbea"></stop> <stop offset="0.63" stop-color="#1bcbd9"></stop> <stop offset="1" stop-color="#1cb4c0"></stop> </radialGradient> <linearGradient id="linear-gradient" x1="309.76" y1="634.76" x2="309.76" y2="507.19" gradientUnits="userSpaceOnUse"> <stop offset="0" stop-color="#003955"></stop> <stop offset="1" stop-color="#00687f"></stop> </linearGradient> <linearGradient id="Áåçûìÿííûé_ãðàäèåíò_971-3" x1="484.63" y1="613.92" x2="483.47" y2="617.17" xlink:href="#Áåçûìÿííûé_ãðàäèåíò_971"></linearGradient> <linearGradient id="Áåçûìÿííûé_ãðàäèåíò_971-4" x1="485.21" y1="593.29" x2="470.18" y2="635.45" xlink:href="#Áåçûìÿííûé_ãðàäèåíò_971"></linearGradient> </defs> <title>Ресурс 5</title> <g class="cls-2"> <g id="Слой_2" data-name="Слой 2"> <g id="Layer_1" data-name="Layer 1"> <path class="cls-3" d="M351.31,114.44C363.36,126.36,363.24,141.91,365,156c6.81-6,10.44-20.36,11.94-28.19,5.42-27.84-16.31-43.23-37.5-63.33-1.08-1-2.14-2.06-3.22-3.11-22-21.51-6.14-39.42,1.8-61.35-39.91,20.89-50.67,52.47-23.68,82.89C324.78,94.7,340.15,103.43,351.31,114.44Z"></path> <path class="cls-4" d="M554.44,390.12a54.61,54.61,0,0,0-7-21c-11.6-20.83-36.41-35.65-27.51-60.25-3.88,10.69-19.11,16.86-24.88,26.87-7.08,12.21-2.51,22.37,5.77,32.8,14.54,18.32,39.45,42.52,4.46,57,13.77-15.63,5.13-43.46-21-49.24-.39-.34-.39-.36.08,0,6.24,5.21,8.35,13.12-1.06,17.13-19.72,8.41-10.87-19.09-8.09-24.75,2.14-4.42,6.3-20.93,11.61-23.24-18.71,8.11-48.65,21.28-47.19,40.17-1.26-16.3-6.1-29.85,5.95-44.8,11.26-13.92,21.26-29.09,22.78-45.42,2.34-25.31-6.46-59.09-32-77.56,9.17,17.12,3.29,45-10.35,60.21-13.18-5.14-9.9-29.56-8.37-38.65,3.11-18.46,13.67-34.56,31.49-47.85-16.25,4.2-34,19.27-42.09,34.1,0-8.93-2.07-18.32-2.44-26-.72-13.71-1.18-31.9-12.17-43.78,6.32,27.09,4.15,64.49-15.1,88.71-2.35,3-5.45,5.44-7.74,8.46,15.81-20.9,23.53-78.77-27.54-79.43,8.46,7,27.68,35.63,2.7,39.1-19.47,2.7-13.26-21-12.46-28.18,1.57-13.81-3.95-23.35-15.89-34.16C289.62,126,264.32,107,285.54,74.57c-15,13-28.87,27.09-33.76,44a90,90,0,0,0,.22,50.55c6.58,21.63,30.81,37.8,40.11,58.89,7.21,16.35,4.78,36.11-10.18,50-1.49-21.76-22.12-36.46-52-37.88,18.51,8.76,25.69,23.46,29.54,38.67a99.65,99.65,0,0,1,2.4,34c-.21,2.25-1.53,5.38-3,8.74a68.33,68.33,0,0,0-7.27-20.9,127.12,127.12,0,0,0-21.72-28.84c4.15,7.48-.37,20.41-3.72,27.7-5.81,12.64-15.14,24.38-21.63,36.76a54.12,54.12,0,0,0-3.25,7.68c-7.88-10-4.14-16.71,4.16-27,14.22-17.57,12.64-41.23,5-60.47-4.66-11.71-16.16-21.95-18-34.25-1.89-13,4.2-21.36,14.82-30.37-16.78,5.66-28.46,25.5-31.72,37.83-5.75,21.71,5,42-4.86,64.18-12.27,27.56-41.38,47-46.38,76.9-4.72,28.08,9.18,56.37,37.3,75.87,35.48,24.63,92.84,32.17,140,36,30.09,5.13,124.72,2.64,170.87-10.18,25.7-7.22,49.34-20.12,64.3-37C549.71,420.86,556.09,405.77,554.44,390.12Z"></path> <path class="cls-3" d="M206.29,181.1c9.73,8.05,21.3,14.25,34,19.55-4.25-1.76-12.66-12.44-15.95-16-5.87-6.26-8.9-14.54-10.42-21.94-3.83-18.88-4.72-37.74,9.12-54,14.7-17.3,31.54-37.22,15-57.25-4.46,20-28.3,33.42-42.06,50-15.32,18.46-17.86,39.79-6.57,59.71A72.65,72.65,0,0,0,206.29,181.1Z"></path> <path class="cls-5" d="M182.09,450.83c-16.82-9.27-30.36-21.22-37.93-36.68-14-28.75-4.13-58.9,14-85.37,8-11.72,23.29-23.34,29.14-35.33,5.76-11.76-.51-23.64-3.75-35.21a49.12,49.12,0,0,1,3.07-34.42c-5.47,19.63,9.18,38.4,14.91,56.79,5.94,19-1.81,35.34-12.46,52.46-9.48,15.25-7.53,47.47,17.5,55.37,1.41-15.65,1.21-29.77,10.43-43.91,8.26-12.69,18-25,18.52-39.44-2.11,13.73,11.15,31.11,26.85,38.34,10.26-4.86,9-25.52,9.56-33.4,1.09-16.42-3.82-32.64-13.15-47.57,7.4,11.87,29.44,41,47.43,21.4,15.49-16.91,7.73-45.74-.79-63.4-11.2-23.24-31.39-40.38-36.29-65.67-2.51-12.92-1.33-24.94,4.92-37.37-.73,40.6,50.62,65.09,57.87,103.11,1.83,9.49,2.07,21.81-4.57,30.4,22.8-14.88,34.7-32.26,39.2-54.19-.07,15.35,1.65,29.85-2.76,45-2,6.89-13.86,24.16,2.31,25.52,17.89,1.5,27.78-28.22,28.83-37.1,1.22,14-6.25,28.16-3.84,42.15,2.07,12,21.44,45,43.19,31.18,13.49-8.57,14.6-34.34,9.35-45.81,11.06,24.24,14.44,47.57-1.71,71.42-13.12,19.45-38.69,36.78-32.34,61.33,6.1,23.43,25.7,15.93,36,0,6.13-9.45,12-17.41,22.86-24.44-5.25,9.59-19.29,29.57-11.63,39.9,10.62,14.3,32.57-.5,36.95-10.69-1.1,2.57,3.86,10.65,2.39,15.22-1.33,4.09-8.66,9.65-8,13.93,2.51,16.34,26.77,1.73,32.34-4.67,12.46-14.22,15.34-27.64,3.33-42.52s-21.08-29.52-8.1-45.62c-9.84,12.23,13.9,23.62,19.54,32.9,8.52,14,8.26,31.61,4,46.24-9.8,33.56-57.59,59.9-100.75,67.08-54.21,9-111.86,7.53-162.42.36C243.74,473.51,208.79,465.54,182.09,450.83Z"></path> <path class="cls-6" d="M154.42,413.41c-18.21-41.67,13.83-80.47,42.92-118.21-20.06,26-44.55,70.15-17.64,98.13,27.07,28.13,62.52-3.2,65.77-26,1.86-13.08-1.85-26.54-4.28-39.48,1.9,9.74,23.23,22.21,35.45,17.83,18.83-6.75,18-35,10.71-46.53,13.34,21.06,34.17-40.82,33.46-49.45-2.36-28.86-27.8-53.3-42.37-79.31-5.63-10-6.12-18.61-5.95-29.36,2.53,18.62,17.8,33.43,30.64,48.92,11.59,14,16.74,30.56,22.12,46.4,2.35,6.92-4.39,34.8,11.18,30.72,10.67-2.81,15.31-24.34,20-31.06-5,10.2-17.21,31.27-12.45,42.17,8.43,19.27,34.4-4.14,40.32-13.14-11.75,14.94-10,40.28,15.22,47.37,19.83,5.55,43.85-6.58,48.54-21,.7,9.87-17.11,24-23,32.84-13.4,20.2-36.61,44.16-30.38,67.77,8,30.53,42.54,21.91,55.37-.85-3.12,9.48-15.69,26.2,1,32.41,14.69,5.46,29.72-6.37,36.24-14.41-7.92,7.32-17.9,24.95-2.17,30,16.57,5.27,33.94-11.3,42.57-19.24-8.44,7.78-13.32,16.81-23.69,24.28-18.6,13.4-40.25,26.94-66.26,30.29-35.46,4.57-57.58,5-87.09,5.08-35.17.09-64.75-3.07-104.24-10.34-31.33-5.76-62.72-15.3-80.13-36.67A82.87,82.87,0,0,1,154.42,413.41Z"></path> <path class="cls-7" d="M343.42,78.19c-25.09-17.43-44.42-46-12.19-67.83-17.93,12.13-26.72,25.85-24.17,43.3,2.44,16.47,27.55,35.71,42.17,47.63,9.94,8.1,16.65,16.23,18.63,27.18C371.53,108.93,363.25,92,343.42,78.19Z"></path> <path class="cls-7" d="M234.73,70.56C226.58,87,208.34,96.29,197,111.14c-11.09,14.53-11.72,35.78-4.1,51.38,4.45,9.08,13.13,15,22,21.92C203,172.65,198.54,155,200,140.75c1.64-15.66,13.63-28,23-41.65C227.87,92,230.33,89,233,78.38Z"></path> <path class="cls-8" d="M164.43,357.64c-12.27,47.18,5.28,89.81,74,106.17,52.65,12.53,128.35,11.87,182.8,5.53,33.06-3.85,59.32-15.62,85.17-30.41-16.65,11.09-57.12,14.61-40.73-9.41-17,16.34-29.94-2.09-29.15-14.85-18.91,14.34-48.59,16.69-60.2-4.05-9.84-17.6-2.93-36.84,10-52,8.79-10.32,17-19.67,22.48-31.28-11.72,7.22-27.16,32.54-43.49,31.86-24-1-21.54-32.77-20.72-43.71-5.19,11.36-13,38.31-30.37,13.77,2.39,9.64,9.46,22.3,0,31.07-9.85,9.13-31.24,7.95-39.41-2.05,2,23-1.45,54.52-38.52,62.27-25.12,5.25-49.75-8.36-61.64-23.56-8.72-11.14-9.64-24.17-10.3-36.69Z"></path> <path class="cls-9" d="M611.64,591.76l6.5-46-13.29-8.23-7.08-63.43-15.46-20.66,13.15-40.17s-9.54-4.19-29.76-9.83a251.4,251.4,0,0,0-40-7.37l-1.15-20.22s-1.45-.29-14-2.31-32.22,0-32.22,0l-29.91-20.25s-26.49,13.91-45.85,11.2A184.3,184.3,0,0,0,413,346.62l-6.89-18.54,9.44-13.32C431.09,293.1,429.71,270,428,240.84h0L425.54,200l-11.11,30.48c-.1-1.26-.21-2.51-.35-3.74a104.79,104.79,0,0,0-8.66-31.7l-8.26-18.25-6.55,18.94a61.62,61.62,0,0,1-3.82,8.88c-1.8-10.71-5.26-20.59-8.65-30.25a208.78,208.78,0,0,1-6.86-22.17l-3.56-15.53-10.28,12.1c-11.56,13.63-25.33,20.47-38.65,27.09-2.24,1.11-4.45,2.21-6.62,3.33l20.34-26.35-30.22,14.35c-16.25,7.72-31.85,21.09-42.79,36.68a97.16,97.16,0,0,0-10.74,19.6c-.24-1-.5-2-.78-3l-7.3-27.05-8,26.84c-7.52,25.11-7.21,47.24-2.89,69.66,0,0,7.83,35.45,7.45,38.06-.33,2.25-12.44,19.12-12.44,19.12s1.65,7.15,8.37,17.42c-19.35,2.71-45.85-11.2-45.85-11.2l-29.91,20.25s-19.65-2-32.22,0-14,2.31-14,2.31L110,396.12a251.38,251.38,0,0,0-40,7.37c-20.23,5.64-29.77,9.83-29.77,9.83l13.15,40.17L37.89,474.15l-7.08,63.43-13.29,8.23,6.5,46,3.61,1.73-4.76,31.86H147.71l8.7-32.72s5.53,5.53,18.53,12.68S197.37,626,197.37,626H438.29s9.43-13.54,22.43-20.69,18.53-12.68,18.53-12.68l8.7,32.72H612.8L608,593.49Z"></path> <path class="cls-10" d="M340.56,478.53l114,23.12s-35,13.25-33.74,13.25,37.64-1.54,37.64-1.54-13.11,33.91-38.91,48.17S332.5,553,327.42,550s-9.59-21.84-9.59-21.84,16.36-4.63,26.51-8.23A112.26,112.26,0,0,1,365.77,515s-6.49-2.57-21.15-1.54a218.38,218.38,0,0,0-26.79,3.6V490.35S323.24,480.58,340.56,478.53Zm165,71.86s-2.6,26,4.12,41.15,16,33.81,16,33.81h67s-5.42-26-10.18-32.73-17.56-5.2-41-19.07ZM317.83,597.6s2.17,5.86,5.64,8,32.07.87,39.23-3,6.28-17.34-9.54-24.92-35.33-13.44-35.33-13.44Zm45.3,15.18c-18,10-41.18,4.55-42.91,5.41a5.31,5.31,0,0,0-2.39,2.39v4.77S350.77,630.33,363.13,612.78Zm80.65-52.66c-8.53,11.7-48.21,23.08-50,30.56s5.28,13.32,25.53,2.6S443.78,560.12,443.78,560.12Zm-14.21,39c-15.63,12-32.62,8.76-41.71,14.93s10.87,11.38,23.63,2.93S429.57,599.15,429.57,599.15ZM488,561.41c.22,16,9.76,34.46,9.76,34.46s-6.07-26.66-3.25-52.23C491.21,543.42,487.75,545.37,488,561.41Z"></path> <path class="cls-11" d="M130.15,550.39s2.6,26-4.12,41.15-16,33.81-16,33.81H43s5.42-26,10.19-32.73,17.55-5.2,41-19.07Zm165-71.86-114,23.12s35,13.25,33.75,13.25-37.64-1.54-37.64-1.54,13.11,33.91,38.91,48.17S303.17,553,308.25,550s9.58-21.84,9.58-21.84-16.35-4.63-26.5-8.23A112.26,112.26,0,0,0,269.9,515s6.48-2.57,21.14-1.54a218,218,0,0,1,26.79,3.6V490.35S312.42,480.58,295.11,478.53ZM317.83,597.6s-2.16,5.86-5.63,8-32.08.87-39.23-3-6.29-17.34,9.54-24.92,35.32-13.44,35.32-13.44Zm-45.29,15.18c18,10,41.17,4.55,42.91,5.41a5.32,5.32,0,0,1,2.38,2.39v4.77S284.89,630.33,272.54,612.78Zm-80.65-52.66c8.52,11.7,48.2,23.08,50,30.56s-5.28,13.32-25.52,2.6S191.89,560.12,191.89,560.12Zm14.2,39c15.63,12,32.63,8.76,41.72,14.93s-10.87,11.38-23.63,2.93S206.09,599.15,206.09,599.15ZM141.2,543.64C144,569.21,138,595.87,138,595.87s9.53-18.42,9.75-34.46S144.45,543.42,141.2,543.64Z"></path> <path class="cls-12" d="M581.86,625.35a105.77,105.77,0,0,0-17.24-41c9.21,3.21,15,4.27,17.84,8.31,4.76,6.72,10.18,32.73,10.18,32.73Z"></path> <path class="cls-13" d="M395.78,619.39c7-2.21,14.6-8.14,20-13a46.1,46.1,0,0,0,13.8-7.22s-5.33,9.41-18.08,17.86a28.72,28.72,0,0,1-20.56,3.91Z"></path> <path class="cls-13" d="M419.27,593.28c-11.62,6.15-18.91,6.85-22.67,4.91,8.67-1.6,12.26-3.84,12.26-3.84a40.93,40.93,0,0,0,8.31-5.5c11.29-9.24,23.76-25.05,26.18-28.18.15-.18.29-.37.43-.55C443.78,560.12,439.52,582.55,419.27,593.28Z"></path> <path class="cls-7" d="M419.58,561.53c-13.57,7.5-36.94,4.77-56.79,0,11.81,1.29,27.08,1.55,41.08-2.54,28.18-8.24,54.62-45.67,54.62-45.67S445.38,547.27,419.58,561.53Z"></path> <path class="cls-10" d="M216.4,593.28c19.42,10.29,26.75,5.32,25.7-1.7-2.74,1.07-6.46,1.13-10.74-.48-9.46-3.54-23.54-16-33.16-25.33a25.69,25.69,0,0,1-6.31-5.65S196.15,582.55,216.4,593.28Z"></path> <path class="cls-10" d="M297.89,622.31c-16.68-1.95-25.35-9.53-25.35-9.53,12.35,17.55,45.29,12.57,45.29,12.57v-4.77S314.58,624.26,297.89,622.31Z"></path> <path class="cls-10" d="M249.81,618.21a5.2,5.2,0,0,1-2.41.2c-4.56-.59-11.81-5.76-16.07-9.24-6.92-1.3-14.68-3-22.27-7.93l-1.9-.44a63.44,63.44,0,0,0,17,16.21C233.86,623.42,247.67,622,249.81,618.21Z"></path> <path class="cls-10" d="M287.06,505.93c-13.87,3.9-17.16,9.08-17.16,9.08a2.43,2.43,0,0,1,.47-.16c1.73-.55,8.28-2.25,20.67-1.38a218,218,0,0,1,26.79,3.6V503.54S300.93,502,287.06,505.93Z"></path> <path class="cls-10" d="M308.08,538.65c-2.82,3.36-15.17,8.67-48.33,8.24s-53.66-25.79-53.66-25.79l29.39-2.38-18-13.87,77.62-26.32-114,23.12s35,13.25,33.75,13.25c0,0-6.72,5-18.28,2.44s-19.36-4-19.36-4,13.11,33.91,38.91,48.17S303.17,553,308.25,550s9.58-21.84,9.58-21.84l-1.42-.41C314.39,532.7,310.06,536.3,308.08,538.65Z"></path> <path class="cls-10" d="M296.59,599.15c-13.7-.14-26.35-3.72-24.77-13.1-4.89,6.69-3.76,13.86,1.15,16.54,7.15,3.9,35.76,5.2,39.23,3s5.63-8,5.63-8V585.47S315.23,599.34,296.59,599.15Z"></path> <path class="cls-14" d="M244.24,374.5c-22.49,10.73-56-5.8-56-5.8l-15,9.42s13.05,2.34,35.46,18.86,34.54,25.23,35.46,26.57,47.08,20.84,47.08,20.84l-56.57-13.65S181.44,394,161,388.81s-35.76-1.63-35.76-1.63v11.7s30.89,8.13,54.29,20.48,43.56,25,43.56,25l60.63,7.48-75.42-1.63s-67.78-38.63-92.16-39.95S61.49,420,61.49,420l7.8,21.71s35.76-11,59.82-5.78c36.15,7.82,81.91,42.59,81.91,42.59l87.38-14.21a31.11,31.11,0,0,1,5.2-19.22c6.36-9.54,14.23-9.54,14.23-9.54l-4.66,1.17Z"></path> <path class="cls-14" d="M385,396.05c9.32,5.42,21.89,5.63,21.89,5.63l-25.58,18.86-35.54,13s24.92-15,28-16.9S385,396.05,385,396.05Z"></path> <path class="cls-14" d="M415.14,438.89s24-13,38.73-20.66a97.78,97.78,0,0,1,28.75-9.54S462.5,417.5,444.4,427.8s-21.67,11.92-21.67,11.92Z"></path> <path class="cls-14" d="M531.22,437.24c-40.31-2.27-108.9,43.89-108.9,43.89L352,463.25l73.58,10.4s39.85-24.94,66.94-33.93S531.22,437.24,531.22,437.24Z"></path> <path class="cls-15" d="M344.35,444.39l64.29-9.55s38.43-26.44,56.78-32.36,29.77-6.36,29.77-6.36l.92,7.05c8.52-2.75,14.35-4.29,14.35-4.29v-11.7s-15.28-3.58-35.76,1.63-73.79,41.93-73.79,41.93Z"></path> <path class="cls-15" d="M394.59,375.81s5.27,4.63,21,5.93,25.68-2.06,25.68-2.06l7.62,3.61c8.71-4.31,13.47-5.17,13.47-5.17l-15-9.42s-30.48,15.05-52.81,7.11Z"></path> <path class="cls-15" d="M519.56,410.29c-24.38,1.32-92.16,39.95-92.16,39.95L352,451.87l80.35,7.39S487.24,424.87,512,423a122.85,122.85,0,0,1,43.49,4.34l-3.22,10.85c8.42,1.78,14.15,3.54,14.15,3.54l7.8-21.71S543.94,409,519.56,410.29Z"></path> <path class="cls-16" d="M206,452.18c-.65-.22-41.61-24.71-74.34-34.46-10.38-3.1-19.31-5.47-26.56-7.29C83.5,412,61.49,420,61.49,420l7.8,21.71S75,440,83.44,438.18h0a74.61,74.61,0,0,1,27.21-3.57,76.1,76.1,0,0,1,18.46,1.33,109.68,109.68,0,0,1,14.23,4.2c33.24,9.31,62,27,62,27l78.33-15.26S206.65,452.4,206,452.18Z"></path> <path class="cls-16" d="M231.79,431.59a363.37,363.37,0,0,0-54.61-31.39c-12.21-5.67-23.19-10.36-32.07-14-12-.88-19.91,1-19.91,1v11.7s5.84,1.54,14.35,4.29c41,7.33,85.52,36.66,85.52,36.66l65.24,4.33Z"></path> <path class="cls-16" d="M271.33,393.77,244.24,374.5c-22.49,10.73-56-5.8-56-5.8l-15,9.42s4.76.86,13.46,5.17c33,13,64.95,37.68,64.95,37.68l-11-15.39A44.57,44.57,0,0,0,271.33,393.77Z"></path> <path class="cls-13" d="M309.22,281.92v0l.07,0Z"></path> <path class="cls-17" d="M278.27,380.4l-.18-.84.1.78Z"></path> <polygon class="cls-18" points="273.96 319.46 270.26 320.89 267.15 331.1 266.2 317.51 270.77 316.62 267.15 312.74 262.42 314.03 261.98 326.7 257.9 309.49 264.83 307.57 273.96 319.46"></polygon> <path class="cls-10" d="M122.13,451.31c-47.25-1.73-64.59,29.91-65.89,30.78s-6.07,51.15-6.07,51.15,22.54-12.57,37.71-21.89S110,494.66,110,494.66s-4.77,18.2-29.91,36S38.9,554.48,38.9,554.48l4.34,24.27s30.34-7.8,55.91-26.44,81.93-68.92,81.93-68.92S161.57,455.65,122.13,451.31Z"></path> <path class="cls-7" d="M72.26,489.67l-9.72,36.57c-7.12,4.07-12.37,7-12.37,7s4.77-50.28,6.07-51.15,18.64-32.51,65.89-30.78a89.46,89.46,0,0,1,18.44,4C97.47,459.26,72.26,489.67,72.26,489.67Z"></path> <path class="cls-7" d="M80.08,530.64c25.14-17.78,29.91-36,29.91-36s-4.62,27.74-25,44.64-30.63,22-30.63,22l2.08,13.22c-8,2.91-13.2,4.26-13.2,4.26L38.9,554.48S54.94,548.41,80.08,530.64Z"></path> <path class="cls-15" d="M563.41,489.67l9.71,36.57c7.13,4.07,12.37,7,12.37,7s-4.77-50.28-6.07-51.15-18.64-32.51-65.88-30.78a89.31,89.31,0,0,0-18.44,4C538.2,459.26,563.41,489.67,563.41,489.67Z"></path> <path class="cls-15" d="M555.58,530.64c-25.14-17.78-29.91-36-29.91-36s4.63,27.74,25,44.64,30.63,22,30.63,22l-2.07,13.22c8,2.91,13.2,4.26,13.2,4.26l4.33-24.27S580.72,548.41,555.58,530.64Z"></path> <path class="cls-10" d="M488.54,462c19.65,5.92,34.39,25,34.39,25l-10.4.58s-1,20.81,7.22,37.42,16,24,16,24l1.3,5.63s-21.24-8.67-36-24.85S476.26,484.55,476.26,485s16.58,20.8,16.58,20.8L478.43,475.3Z"></path> <path class="cls-7" d="M291.32,444.39,227,434.84s-38.43-26.44-56.78-32.36-29.76-6.36-29.76-6.36l-.93,7.05c-8.51-2.75-14.35-4.29-14.35-4.29v-11.7s15.28-3.58,35.76,1.63,73.79,41.93,73.79,41.93Z"></path> <path class="cls-7" d="M241.07,375.81s-5.27,4.63-21,5.93-25.68-2.06-25.68-2.06l-7.63,3.61c-8.7-4.31-13.46-5.17-13.46-5.17l15-9.42s30.48,15.05,52.8,7.11Z"></path> <path class="cls-7" d="M116.1,410.29c24.38,1.32,92.16,39.95,92.16,39.95l75.42,1.63-80.35,7.39S148.42,424.87,123.72,423a122.85,122.85,0,0,0-43.49,4.34l3.21,10.85C75,440,69.29,441.72,69.29,441.72L61.49,420S91.72,409,116.1,410.29Z"></path> <path class="cls-17" d="M181.08,483.39s-8.2-11.65-24.71-21c-39.56,7.94-67.42,30.06-67.62,29.89s-7.25,16.53-10.89,25.13c3.48-2.06,6.91-4.11,10-6,2.81-1.72,5.32-3.38,7.57-4.93L110,494.66s6.29,6.72,3.47,25.57c-2.09,14-15.67,30.18-22.59,37.66,2.79-1.74,5.56-3.6,8.28-5.58C124.73,533.67,181.08,483.39,181.08,483.39Z"></path> <path class="cls-13" d="M53.81,625.35a105.78,105.78,0,0,1,17.23-41c-9.21,3.21-15,4.27-17.83,8.31C48.44,599.34,43,625.35,43,625.35Z"></path> <path class="cls-13" d="M239.88,619.39c-7-2.21-14.6-8.14-20-13a46.1,46.1,0,0,1-13.8-7.22s5.33,9.41,18.09,17.86a28.71,28.71,0,0,0,20.56,3.91Z"></path> <path class="cls-13" d="M216.4,593.28c11.61,6.15,18.9,6.85,22.66,4.91-8.66-1.6-12.25-3.84-12.25-3.84a40.66,40.66,0,0,1-8.31-5.5c-11.3-9.24-23.76-25.05-26.19-28.18-.15-.18-.29-.37-.42-.55C191.89,560.12,196.15,582.55,216.4,593.28Z"></path> <path class="cls-7" d="M216.09,561.53c13.56,7.5,36.93,4.77,56.78,0-11.81,1.29-27.07,1.55-41.08-2.54-28.17-8.24-54.61-45.67-54.61-45.67S190.29,547.27,216.09,561.53Z"></path> <path class="cls-10" d="M142.72,543.74c1.61,1.4,3.34,6.93,2.38,20A135,135,0,0,1,138.85,594c2.39-5.06,8.68-19.61,8.85-32.6C147.88,547.88,145.44,544.38,142.72,543.74Z"></path> <path class="cls-10" d="M88.85,625.35H110s9.32-18.64,16-33.81,4.12-41.15,4.12-41.15l-30.9,19.89C106.23,585.36,98.27,607.42,88.85,625.35Z"></path> <path class="cls-11" d="M365.77,515a153.06,153.06,0,0,0-19.33,10.21c-12,7.26-13.11,8-13.76,8.12s-13.42-5.63-13.42-5.63S350.42,515.43,365.77,515Z"></path> <path class="cls-12" d="M269.9,515a152.64,152.64,0,0,1,19.32,10.21c12,7.26,13.12,8,13.77,8.12s13.42-5.63,13.42-5.63S285.24,515.43,269.9,515Z"></path> <path class="cls-12" d="M301.36,575.06c-27.31,10.62-17.93,11.71-8.21,10.41S308.3,572.9,308.3,572.9Z"></path> <path class="cls-12" d="M308.51,489.67c-13.15-5.12-19.36-1.66-19.79-1.51s-19.94,8.38-19.94,8.38,28.17-2.89,32.36-3.47A15.68,15.68,0,0,0,308.51,489.67Z"></path> <path class="cls-12" d="M85.72,591C90.48,603.31,76,619.49,76,619.49s-2.89-5.63-1.59-11.55S85.72,591,85.72,591Z"></path> <path class="cls-7" d="M368.61,321.33s-1.56-29.53-36.18-13.5C332.43,307.83,360.59,302.36,368.61,321.33Z"></path> <path class="cls-7" d="M365.88,322.67s-5.13-6.25-18.63-1.34c0,0-9.9.66-14.82,0,0,0,1.16,2.34,16.72,1.34S365.88,322.67,365.88,322.67Z"></path> <path class="cls-19" d="M302.55,314.82s-4,4-9,4-9-4-9-4,4-4,9-4S302.55,314.82,302.55,314.82Z"></path> <path class="cls-19" d="M355.94,314.82s-4,4-9,4-9-4-9-4,4-4,9-4S355.94,314.82,355.94,314.82Z"></path> <path class="cls-7" d="M271.08,321.33s1.56-29.53,36.18-13.5C307.26,307.83,279.1,302.36,271.08,321.33Z"></path> <path class="cls-7" d="M273.81,322.67s5.13-6.25,18.63-1.34c0,0,9.9.66,14.82,0,0,0-1.16,2.34-16.73,1.34S273.81,322.67,273.81,322.67Z"></path> <path class="cls-20" d="M254.12,345.85c1.14-22,2.2-41.93,7.38-62.13,1.57,5.82,6.51,11.45,9.92,14.8-2.33-7.42-5.53-16.53-4.5-25.08,13.44,20.1,35.24,34.39,70,39.66-6.46-7-13.54-14.23-18.45-25.34,12.51,11.89,30.64,17.46,47,22.52-6.33-9.63-13.93-18.54-15.54-30.82,6,12.37,22,12.73,28,25.1,4.94,10.25,4.79,28.48,1.41,46.06,7.11-6.8,29.6-39.85,29.69-40.59,14.27-19.87,12.5-42.17,10.78-71.13-3.13,8.58-8.15,17.26-15.16,22.14,4.35-23.77,1.69-44.45-6.54-62.66-4,11.69-10.12,20.65-18.34,26.7,2.14-26.6-10.88-47.38-16.31-71.08-25.76,30.34-61.1,29.68-75.31,55.68,1.34-13,7.22-21.9,17.49-35.21-24.93,11.85-54.54,42-54.86,78.14-6.33-9.21-7.62-19.19-10.54-30-13,43.54-.86,78.6,14,123.25Z"></path> <path class="cls-21" d="M254.12,345.85c1.14-22,2.2-41.93,7.38-62.13,1.57,5.82,6.51,11.45,9.92,14.8-2.33-7.42-5.53-16.53-4.5-25.08,13.44,20.1,35.24,34.39,70,39.66-6.46-7-13.54-14.23-18.45-25.34,12.51,11.89,30.64,17.46,47,22.52-6.33-9.63-13.93-18.54-15.54-30.82,6,12.37,17.56,16.33,23.51,28.7a72.37,72.37,0,0,1,5.85,42.46c1.52-9.72,28.25-41.95,28.25-41.95a47.17,47.17,0,0,0,7.18-20.32c-1.69,3.29-6.76,8.49-11.41,11.76,9.11-17.51,13.38-29.68,13.83-45.84-3.59,8.25-11.33,14.73-18.19,19.76,1.76-13.72,4.89-39.44.07-54.81-.92,10.43-4.07,18.07-8.83,26.36,4.32-15.2,6.87-21.8,6.78-34-4.31,11.92-13.15,20.77-23,27.88.05-20.74-.91-42.5-6.23-57.62-1,6.15-5.24,24.11-6.25,30.26-1.28-12.59-4-31.09-1.06-44.5-10.41,9.47-26,26.82-36.19,37.39l15.52-28.48C315.43,204.1,306.22,192.78,280,227.7c-.18-10.59,3.85-25.51,11.78-39.92-25.08,17.09-33.07,47.32-38.32,77.77-6.77-6.67-10.53-16.42-12.77-27-1,15.82.08,33.52,2.88,46.66l-7.24-13.74c4.75,27.57,8.48,46.88,17.82,74.36Z"></path> <path class="cls-22" d="M327.23,307.18C308.64,299,305.38,296.81,292,287.51l7.58,9.76c-9.09-4.84-17.07-11.62-24.61-18.13l-6.48-3.4,6,1.67-2.13-4.76,6.54,3.19,21,6.28,9.81.61,12-3.67,10-8.35q2.89-5,5.8-10.09c-.19,6.1,3.48,18.1,7.85,22.69-3.38-1.43-9.07-6.85-10.28-9,3,11.64,12.5,21.7,24.49,30.22-16.08-3.25-32.49-13-44.67-20.72a38.53,38.53,0,0,0,12.31,23.38Z"></path> <path class="cls-23" d="M290.18,243.47c20.15-4.35,35.28-10.23,45.55-36.46,3.27,22.91-6.32,37.88-18.52,51.44,10.27-3.26,23.3-13.7,28.05-25.83-6.06,54.2-33.93,59.83-71.14,41.52,1.11,3.86,4.65,7.85,7.84,10.57-6.09-2.17-10.64-5.92-14.68-10.19l-4-7.36c2.62,3.66,5.22,7.56,9.58,10-.78-1.77-1-4.58-1.82-6.35,47.82,23.27,64.45,3.54,69.16-25-5.66,10.11-22.72,16.79-32.8,16,17.11-12.26,26.46-29.35,26.71-45.06-10.21,21.27-27,25.71-43.93,26.65Zm-33.66,20.62c.19,15.45,3.91,24.07,14.9,34.43-8.3-10-13.43-23.58-14.9-34.43Z"></path> <path class="cls-24" d="M319.64,324.28l-4.11,1.08L306,338.84l1.92-7.21-3.41.74-5,7.54.83-4.24c-12.28.27-19.85-2.82-25.2-7.67l1.07,6.52a18.13,18.13,0,0,1-6.93-11c-6.64,21.39-4.11,34.73-.63,40.7.88-3.79,1.91-7.6,4.12-10.5.32,18.89,22.81,29.1,27.57,39.88-9.51-7.14-16.16-12.43-23.76-14.55,9.5,21.51,26.06,37.11,43,47.7,17-10.59,33.54-26.19,43-47.7-9.14,12.69-22.05,29.36-43,39.86-1.12-19,6.82-19.39,0-43.91,9.08-2.5,30.06-10.48,32.85-23.54-10.12,10-20.82,12.39-32.85,14.84v-8.71c-8.91-2-15.12-5.55-16-9.7a69.81,69.81,0,0,0,16,4.13,69.91,69.91,0,0,0,16-4.13c-.42,2-2.1,3.89-4.73,5.52,19.29-5.72,28.68-14.73,33.21-25.36-5.35,4.85-12.92,7.94-25.2,7.67l.83,4.24-5-7.54-3.42-.74,1.93,7.21-9.5-13.48Z"></path> <path class="cls-25" d="M319.64,324.25l-4.11,1.08L306,338.8l1.92-7.2-3.41.73-5,7.55.83-4.25c-12.28.27-19.85-2.81-25.2-7.67l1.07,6.53a18.16,18.16,0,0,1-6.93-11.05c-6.64,21.39-4.11,34.73-.63,40.7.88-3.8,1.91-7.6,4.12-10.5.32,18.89,22.81,29.1,27.57,39.88-9.51-7.14-16.16-12.43-23.76-14.56,7.61,17.24,19.76,30.68,33,40.79,3.88-2.58,5.43-10.32,4.8-20.83a9.28,9.28,0,0,1-4.71,5.26c7.62-23.89-4.4-24.28-6.41-37.8a23.92,23.92,0,0,0,16.34,8.54V357.51c-8.91-2-15.12-5.55-16-9.7,16.39,1.35,16-5.32,16-19.08l0-2.11a17.79,17.79,0,0,1,8.25,4.65l-4.19-5.94Z"></path> <path class="cls-26" d="M286,383.27a37.1,37.1,0,0,0-9.38-4.27c7.61,17.23,19.76,30.67,33,40.78C298.62,406.36,290.23,394,286,383.27Z"></path> <path class="cls-26" d="M299.5,339.91l.83-4.24c-12.28.27-19.85-2.82-25.2-7.67C278.79,334.37,285.83,338.92,299.5,339.91Z"></path> <path class="cls-27" d="M360.17,370.06c3.58-4.72,6.17-10.07,6.27-16.39,2.22,2.9,3.25,6.71,4.13,10.5,3.48-6,6-19.31-.63-40.7.95,9.2,1.85,21.18.65,29.61a17.28,17.28,0,0,0-7.65-7.52C363.62,354.74,363.34,362,360.17,370.06Z"></path> <path class="cls-26" d="M279,370.06c-3.58-4.72-6.17-10.07-6.28-16.39-2.21,2.9-3.24,6.71-4.12,10.5-3.48-6-6-19.31.63-40.7-.18,1.77.84,3.77,2.28,5.91-2.14,9.25-3.9,16.89-2.93,23.7a17.28,17.28,0,0,1,7.65-7.52C275.59,354.74,275.87,362,279,370.06Z"></path> <path class="cls-26" d="M317.14,335l-6.28,5.56C314.47,347.23,315.92,341.07,317.14,335Z"></path> <path class="cls-26" d="M316.16,363c-7.78-3-15.26-9.16-22.57-17q1.26,3.93,2.53,7.85C304.69,361.26,310.68,362.72,316.16,363Z"></path> <path class="cls-28" d="M318.41,431.54a24.32,24.32,0,1,1-24.32,24.32,24.31,24.31,0,0,1,24.32-24.32Zm0,7a18.72,18.72,0,1,0,18.72,18.72A18.72,18.72,0,0,0,318.41,438.58Z"></path> <path class="cls-29" d="M318.41,480.17a24.31,24.31,0,0,1-.65-48.62h.65a24.18,24.18,0,0,1,13.84,4.33,35.07,35.07,0,0,0-10.73-1.51c-.15,1.53-.47,4.4-3.11,4.22a18.72,18.72,0,0,0,0,37.44h.2a18.68,18.68,0,0,0,9.24-2.55c-1.13,1.93-4.16,3-7.41,3.66C321.13,478.22,320.87,479.77,318.41,480.17Z"></path> <path class="cls-26" d="M318.41,472.21A14.18,14.18,0,1,0,304.23,458,14.21,14.21,0,0,0,318.41,472.21Z"></path> <path class="cls-30" d="M295.75,464.7a24.33,24.33,0,0,1,22-33.15h.65a24.46,24.46,0,0,1,5.78.69c-.59,0-1.18-.06-1.77-.06a27.19,27.19,0,0,0-27.19,27.19A27.63,27.63,0,0,0,295.75,464.7Z"></path> <path class="cls-24" d="M318.41,443.85a14.17,14.17,0,0,0-14.07,12.43h0a12.6,12.6,0,1,1,1.37,7.7,4.66,4.66,0,0,1-.4-.68l-.06,0a14.17,14.17,0,1,0,13.14-19.47Z"></path> <g class="cls-31"> <path class="cls-32" d="M283.07,315c0,56.35,4.43,102,9.9,102s9.9-45.68,9.9-102-4.43-102-9.9-102S283.07,258.6,283.07,315Z"></path> <path class="cls-33" d="M293,324.85c56.35,0,102-4.44,102-9.9s-45.68-9.9-102-9.9-102,4.43-102,9.9S236.62,324.85,293,324.85Z"></path> <path class="cls-34" d="M286,322c39.85,39.84,75.28,69,79.15,65.15S339.81,347.8,300,308s-75.28-69-79.15-65.15S246.12,282.1,286,322Z"></path> <path class="cls-35" d="M300,322c39.84-39.85,69-75.29,65.15-79.15S325.82,268.1,286,308s-69,75.28-65.15,79.15S260.12,361.79,300,322Z"></path> <circle class="cls-36" cx="292.97" cy="314.95" r="68.37"></circle> <path class="cls-37" d="M292.81,312.92c-39.5,15.65-71.16,29.25-70.72,30.37s32.83-10.66,72.33-26.31,71.17-29.25,70.72-30.37S332.32,297.27,292.81,312.92Z"></path> <path class="cls-38" d="M294.42,312.92c39.5,15.65,71.17,29.25,70.72,30.37S332.32,332.63,292.81,317s-71.16-29.25-70.72-30.37S254.92,297.27,294.42,312.92Z"></path> <path class="cls-39" d="M291.59,315.75c15.65,39.5,29.24,71.17,30.37,70.72s-10.66-32.82-26.31-72.33S266.4,243,265.28,243.42,275.94,276.25,291.59,315.75Z"></path> <path class="cls-40" d="M291.59,314.14c15.65-39.5,29.24-71.16,30.37-70.72s-10.66,32.83-26.31,72.33-29.25,71.17-30.37,70.72S275.94,353.65,291.59,314.14Z"></path> <circle class="cls-41" cx="292.97" cy="314.95" r="46.89" transform="translate(-136.89 299.41) rotate(-45)"></circle> <circle class="cls-42" cx="292.97" cy="314.95" r="29.06"></circle> </g> <g class="cls-43"> <path class="cls-44" d="M338.59,314.22c0,56.35,4.43,102,9.9,102s9.89-45.68,9.89-102-4.43-102-9.89-102S338.59,257.87,338.59,314.22Z"></path> <path class="cls-45" d="M348.49,324.12c56.35,0,102-4.44,102-9.9s-45.68-9.9-102-9.9-102,4.43-102,9.9S292.13,324.12,348.49,324.12Z"></path> <path class="cls-46" d="M341.49,321.22c39.84,39.84,75.28,69,79.14,65.15s-25.3-39.3-65.15-79.15-75.28-69-79.14-65.15S301.64,281.37,341.49,321.22Z"></path> <path class="cls-47" d="M355.48,321.22c39.85-39.85,69-75.28,65.15-79.15s-39.3,25.3-79.14,65.15-69,75.28-65.15,79.15S315.64,361.06,355.48,321.22Z"></path> <circle class="cls-48" cx="348.49" cy="314.22" r="68.37"></circle> <path class="cls-49" d="M348.33,312.19c-39.5,15.65-71.17,29.25-70.72,30.37s32.83-10.66,72.33-26.31S421.1,287,420.66,285.88,387.83,296.54,348.33,312.19Z"></path> <path class="cls-50" d="M349.94,312.19c39.5,15.65,71.16,29.25,70.72,30.37s-32.83-10.66-72.33-26.31S277.16,287,277.61,285.88,310.44,296.54,349.94,312.19Z"></path> <path class="cls-51" d="M347.1,315c15.65,39.51,29.25,71.17,30.37,70.72s-10.66-32.82-26.31-72.33-29.24-71.16-30.36-70.72S331.45,275.52,347.1,315Z"></path> <path class="cls-52" d="M347.1,313.41c15.65-39.5,29.25-71.16,30.37-70.72S366.81,275.52,351.16,315s-29.24,71.17-30.36,70.72S331.45,352.92,347.1,313.41Z"></path> <circle class="cls-53" cx="348.49" cy="314.22" r="46.89" transform="translate(-120.12 338.45) rotate(-45)"></circle> <circle class="cls-54" cx="348.49" cy="314.22" r="29.06"></circle> </g> <circle class="cls-55" cx="492.72" cy="398.38" r="9.08"></circle> <path class="cls-56" d="M493.2,629l-.12,2.73a35.72,35.72,0,0,1-4.83-1.09l1.74-2.57A28.24,28.24,0,0,0,493.2,629Z"></path> <path class="cls-56" d="M486,626.34l-.12,2.73a35.72,35.72,0,0,1-4.83-1.09l1.74-2.57A28.24,28.24,0,0,0,486,626.34Z"></path> <path class="cls-56" d="M486.31,620.23l-.28,6.11a28.24,28.24,0,0,1-3.21-.93Z"></path> <polygon class="cls-56" points="167.94 623.9 175.8 616.96 172.34 627.46 168.04 631.21 167.94 623.9"></polygon> <path class="cls-57" d="M147.44,625.63l-.79.94L145.6,637l6.28-.89h0s0,0,0,0h0l.33-.45a1,1,0,0,1,.12-.16L161,623.84l5.79-7.78-1.27,6.58,2.84-13.21,2.94-12.58Z"></path> <polygon class="cls-56" points="164.26 599.98 170.77 592.14 169.92 597.47 169.62 598.9 162.97 606.91 164.26 599.98"></polygon> <polygon class="cls-58" points="147.42 625.63 151.18 636.25 145.13 637.11 146.21 625.78 147.42 625.63"></polygon> <path class="cls-59" d="M623.47,671.39c-1.82-12.27-12.69-27.16-13.13-39.56-.49-13.59,2.63-26.94,6-40.1,2-7.8,4-15.46-1.22-22.61-3.8-5.23-14.09-11.86-20.2-14.3A328.57,328.57,0,0,0,547,539.46c-22.5-5.48-45.57-8.41-68.62-10.68-54.43-5.39-109.47-5.19-164.09-2.76-54.62-2.43-109.63-2.62-164,2.76-23.06,2.27-46.12,5.2-68.62,10.68a327.4,327.4,0,0,0-47.92,15.37c-6.11,2.43-16.4,9.06-20.21,14.29-5.21,7.15-3.2,14.81-1.22,22.61,3.36,13.16,6.49,26.51,6,40.1-.45,12.4-11.32,27.29-13.13,39.57C4.2,677.61,7.28,682.34,9.48,688c1.44,3.71,2.71,7.48,4.29,11.14a4.07,4.07,0,0,0,1.55,2.09,9.2,9.2,0,0,1-.25-2.44c-.08-.86-.15-1.73-.18-2.59a27.39,27.39,0,0,1,.19-4.53A21.91,21.91,0,0,1,17.9,683a34.81,34.81,0,0,1,7.81-8.56c3.08-2.57,6.06-5.3,9.3-7.66A25,25,0,0,1,37.77,665a96.56,96.56,0,0,1,12.43-5.42l.62-.24c23.63-8.94,48.74-14.32,73.62-18.78Q135,638.66,145.6,637c2.11-.33,4.21-.65,6.32-.94L161,623.84l5.79-7.78-1.27,6.58-.14.66-.12.53L167.36,634l.8-.09c55.62-7.31,108.24-9,164.44-7.5,28.42.73,56.71.4,85.16,2.76q21.75,1.83,43.41,4.71c2.27.3,4.43.61,6.56.92l7.07-9L484,614.1l0,.41-.2,2.79-.65,9.7-.7,10.12c6.1,1,12.91,2.13,21.68,3.43,24.89,4.46,50,9.83,73.63,18.78a107.09,107.09,0,0,1,11.39,4.73,39.4,39.4,0,0,1,9.27,6.85c5.29,5.15,10.34,11.34,13.27,18.17a30.55,30.55,0,0,1,2.07,6.93,40.89,40.89,0,0,1,.23,7.25c.77-.31,1-1.73,1.14-2.47a67.48,67.48,0,0,1,2.16-7.91c.85-2.5,2-4.88,2.85-7.38C622.09,681,624.18,676.45,623.47,671.39Z"></path> <path class="cls-60" d="M617,693.71c-1.11,2-2.2,4-3.21,6.12,3.57-7.72,8.3-20,5.71-27.86s-13.41-13.51-20.28-17c-26.28-12.25-69.6-21.09-116.05-27.93l.65-9.7.2-2.79,0-.41-9.22,11.69c-2.34-.34-4.7-.65-7.06-1-7-1-14.12-1.89-21.2-2.78-71.5-8.95-194.32-7-254.73-1.49-8.82.8-17.64,1.72-26.38,2.76h0l.14-.66,1.27-6.58L161,623.84c-4.55.56-9.09,1.15-13.59,1.79-47.31,6.57-90.8,16.6-118.06,29.31-6.86,3.53-17.69,9.18-20.28,17s2.13,20.14,5.71,27.86c-1-2.11-2.1-4.15-3.21-6.13C5.34,682.59-1.57,673,.5,659c1.81-12.28,7.33-24,7.77-36.36.49-13.59-2.63-27-6-40.11-2-7.81-4-15.46,1.22-22.61,3.81-5.22,14.1-11.87,20.2-14.3a329,329,0,0,1,47.92-15.36c85.12-20.72,311.89-42.22,485.34,0a329,329,0,0,1,47.92,15.36c6.1,2.43,16.39,9.07,20.19,14.29,5.22,7.16,3.22,14.81,1.22,22.62-3.35,13.15-6.47,26.51-6,40.1.44,12.4,6,24.09,7.78,36.37C630.14,673,623.23,682.59,617,693.71Z"></path> <path class="cls-61" d="M8.27,622.63C7.83,635,2.31,646.72.5,659c-2.41,16.35,7.36,26.69,14.08,40.44C-2,657.26,20.39,680,24.68,618.18c1.61-23.15-2.67-46.5-7.83-69.06-4.17,2.47-10.61,7-13.35,10.79h0C-6.32,573.4,9.43,590.61,8.27,622.63Z"></path> <path class="cls-57" d="M147.44,625.63l-.79.94L145.6,637l6.28-.89h0s0,0,0,0h0l.33-.45a1,1,0,0,1,.12-.16L161,623.84l5.79-7.78-1.27,6.58,2.84-13.21,2.94-12.58Z"></path> <path class="cls-62" d="M30.42,604.86c1.56,16.52-.53,33.69-8.41,48.43C24.78,648.1,45.3,643,51,640.94A314.56,314.56,0,0,1,84.48,630.7c21.75-5.34,45.13-8,67.4-10.42-2.38,3-4.46,5.35-4.46,5.35-10.53,1.24-24.15,4.1-34.73,6a515.7,515.7,0,0,0-50.55,11.54c-17.32,5-50.09,12.42-52.63,33.4-1,8,1.6,15.95,4.18,23.6-5.23-13.29-10.22-22.57-2.78-36.12A118.35,118.35,0,0,0,26,610.93a138.88,138.88,0,0,0-7.89-54.27C23.82,572.3,28.86,588.33,30.42,604.86Z"></path> <path class="cls-63" d="M11.43,660.86c-3.87,8.2-6.76,17.6-3.76,26.14-8.16-15-10.35-33.52-.42-48.37a5.27,5.27,0,0,1,1.11-1.29c2.41-1.78,4.4-1.69,6.35-4.25,1.73-2.26,2.68-5.2,3.63-7.83C21,618,21.6,610.2,21.73,602.58a205.53,205.53,0,0,0-.73-21.2c-.4-4.6-1-9.38-3.66-13.22s-7.9-6.39-12.3-4.6c3.93-1.6,7.6-3.62,11.38-5.45,5.11,17.67,10.07,33.78,9.56,52.59C25.53,627.41,18.58,645.7,11.43,660.86Z"></path> <path class="cls-64" d="M16.25,582.25a24.23,24.23,0,0,1,2.64,8.27,26.55,26.55,0,0,1-.62,7.58A259.29,259.29,0,0,1,6.75,640.05c4.11-11.21,2.83-26.7,1.41-38.27A120.55,120.55,0,0,0,4,581.91c-1.63-5.44-4.23-11.64-4-17.41C5.92,568.45,12.6,575.11,16.25,582.25Z"></path> <path class="cls-65" d="M229.74,599.37a3.34,3.34,0,0,0,2.3,4.19,3.49,3.49,0,0,0,4.33-2.23,3.34,3.34,0,0,0-2.3-4.19A3.49,3.49,0,0,0,229.74,599.37Z"></path> <path class="cls-65" d="M85.25,610.69a5.93,5.93,0,0,0,4.08,7.45,6.21,6.21,0,0,0,7.7-4,5.93,5.93,0,0,0-4.09-7.45A6.19,6.19,0,0,0,85.25,610.69Z"></path> <path class="cls-65" d="M113.09,555.78a4.44,4.44,0,0,0,3.06,5.58,4.64,4.64,0,0,0,5.77-3,4.44,4.44,0,0,0-3.06-5.59A4.64,4.64,0,0,0,113.09,555.78Z"></path> <path class="cls-65" d="M55.19,558.09a4.45,4.45,0,0,0,3.06,5.59,4.66,4.66,0,0,0,5.77-3A4.45,4.45,0,0,0,61,555.12,4.66,4.66,0,0,0,55.19,558.09Z"></path> <path class="cls-65" d="M278.18,540.43a3.34,3.34,0,0,0,2.3,4.19,3.48,3.48,0,0,0,4.32-2.22,3.33,3.33,0,0,0-2.29-4.2A3.49,3.49,0,0,0,278.18,540.43Z"></path> <path class="cls-65" d="M288.88,588.06a3.34,3.34,0,0,0,2.3,4.19A3.48,3.48,0,0,0,295.5,590a3.34,3.34,0,0,0-2.29-4.2A3.49,3.49,0,0,0,288.88,588.06Z"></path> <path class="cls-65" d="M196.63,551.32a4.83,4.83,0,0,0,3.32,6.06,5,5,0,0,0,6.25-3.22,4.82,4.82,0,0,0-3.32-6A5,5,0,0,0,196.63,551.32Z"></path> <path class="cls-61" d="M626.46,651.1c-21.75-62.91,24.93-78.5-14.73-102-5.16,22.56-9.44,45.91-7.83,69.06,3.83,55.32,26.91,43.94,10.34,80.58l-.28.76C623.41,680.11,632.32,674.68,626.46,651.1Z"></path> <path class="cls-66" d="M615.09,665.4c-9.78-16.78-11.67-44.46-12.43-62.39-.71-16.74,5.62-36.83,11-52.68-1.51-1-3-1.84-4.46-2.62l-.46-.24a42.86,42.86,0,0,0-3.91-1.85,353,353,0,0,0-36.2-12.33c-3.72-1-7.57-2-11.71-3-173.45-42.22-400.22-20.72-485.34,0A319.45,319.45,0,0,0,36.93,540.6c-4.43,1.63-8.85,3.28-13.23,5-1.16.46-2.5,1.11-3.9,1.84l-.46.24c-1.44.78-2.95,1.65-4.46,2.62,5.42,15.85,11.75,35.94,11,52.68-.76,17.93-2.65,45.61-12.43,62.4.47-.47.9-.95,1.41-1.39C41.37,626.86,67,596.6,114.82,586.24q15.59-3.39,31.35-5.91c8.68-1.4,20.32-.85,27.93-5.53l-29.68-9.31c13.73.33,27.08,4.07,40.53,6.78,24.56,5,46.72-1.29,71.28-2.51,47.47-2.36,96.66,4.28,142.58-10.67a143.83,143.83,0,0,0-18.57,11.22c17.25,1.7,35.47,1.25,52.49,4,24.58,2.11,49.1,5.22,73.18,10.45,47.75,10.35,80.63,42,107.66,79.18C614.11,664.4,614.59,664.91,615.09,665.4Z"></path> <path class="cls-67" d="M19.39,547.69c-1.37.73-2.79,1.55-4.22,2.45a16.59,16.59,0,0,0,.94,2.64c15.58,36.69,13.7,79.16-6,113.88,4.89-8.6,10.54-16.59,14.17-25.82,11.21-28.49,22.82-51.72,51.27-67,23.49-12.61,50.35-17.47,76.18-23.5,39.6-9.23,79.14-7.88,119.37-7.1,9.86.19,19.6-2.88,29.38-4,10.23-1.22,21.83.5,31.74-1.4a323.35,323.35,0,0,0-34.35,8.55c29.92-1.82,63.35-7.68,93.18-5,26.79,2.43,54.46,12.37,81.3,17,21.25,3.65,43.18,6.21,64.3,1.93a11.54,11.54,0,0,0-5.31,5c15.14,5,29.52,7.53,41.69,17.88,10.5,8.94,19.69,20.35,23.85,33.45,2.71,8,4.43,16.4,7.52,24.25,3.63,9.24,9.28,17.23,14.17,25.82-19.75-34.72-21.63-77.18-6-113.87a16.59,16.59,0,0,0,.94-2.64c-1.43-.91-2.86-1.72-4.22-2.46l-.61-.31c-1.32-.69-2.59-1.3-3.7-1.75-16.78-6.67-34.11-10.6-51.09-16l-1-.34c-172.9-40.87-396.7-19.58-481.14,1a321.81,321.81,0,0,0-41.51,12.86c-2.13.84-4.27,1.65-6.41,2.51a40.62,40.62,0,0,0-3.7,1.74Z"></path> <path class="cls-68" d="M3.5,559.91A17.34,17.34,0,0,0,1.74,563c0,.09-.06.18-.1.26a17.49,17.49,0,0,0-1,2.95,32,32,0,0,1,8.45-7.81c6.14-4,18-10.66,25-12.75,73.28-21.74,187.4-29,263.36-29,110.87,0,186,3.65,296.88,29,7.17,1.64,18.9,8.8,25,12.75a31.81,31.81,0,0,1,8.45,7.81,17.49,17.49,0,0,0-1-2.95c0-.08-.06-.17-.1-.26a17.34,17.34,0,0,0-1.76-3.05c-3.33-4.57-11.63-10.22-17.74-13.19-.87-.42-1.7-.79-2.46-1.1-6.4-2.54-12.21-4.72-17.92-6.69-6.13-2.1-12.17-4-18.67-5.74-3.6-1-7.33-2-11.33-2.93-162.89-39.65-372.79-23.1-468.24-3.78-5.7,1.24-11.42,2.4-17.1,3.78-2.87.7-5.57,1.39-8.22,2.1-2.95.78-5.8,1.57-8.58,2.38-10.33,3-19.83,6.39-31.12,10.89A65.33,65.33,0,0,0,7.4,555.82,26.5,26.5,0,0,0,3.5,559.91Z"></path> <path class="cls-62" d="M598.16,604.86c-1.56,16.52.53,33.69,8.41,48.43a314.15,314.15,0,0,0-115.85-30.93l-.18-4.18c-.61-4.67-2.1-12.22-4-17-.29,4.44-2.73,16.12-2.73,16.12l-.65,9.7s56.24,8.41,83.29,16.16c17.32,5,50.09,12.43,52.63,33.41,1,8-1.6,15.95-4.18,23.6,5.23-13.29,10.22-22.57,2.78-36.12a118.36,118.36,0,0,1-15.06-53.13,138.67,138.67,0,0,1,7.89-54.26C604.76,572.3,599.72,588.33,598.16,604.86Z"></path> <path class="cls-63" d="M617.15,660.86c3.87,8.2,6.76,17.6,3.76,26.14a60.65,60.65,0,0,0,5.26-11.48c2.83-9.51,2.09-29.52-5.24-37.27-1.43-1.51-4.07-1.8-5.74-3.53-2.37-2.46-3.83-6.35-5-9.46-2.61-7.24-3.26-15.07-3.39-22.68a205.53,205.53,0,0,1,.73-21.2c.4-4.6,1-9.38,3.66-13.23s7.9-6.38,12.3-4.6c-3.93-1.59-7.6-3.62-11.38-5.44-5.11,17.67-10.07,33.78-9.56,52.59C603.05,627.41,610,645.7,617.15,660.86Z"></path> <path class="cls-64" d="M612.33,582.25a24,24,0,0,0-2.63,8.27,25.88,25.88,0,0,0,.62,7.58,258.51,258.51,0,0,0,11.51,41.95c-4.11-11.21-2.83-26.7-1.41-38.27a120.55,120.55,0,0,1,4.15-19.87c1.63-5.45,4.23-11.64,4-17.41C622.66,568.45,616,575.11,612.33,582.25Z"></path> <path class="cls-65" d="M398.84,599.36a3.35,3.35,0,0,1-2.3,4.2,3.49,3.49,0,0,1-4.33-2.23,3.34,3.34,0,0,1,2.3-4.19A3.48,3.48,0,0,1,398.84,599.36Z"></path> <path class="cls-65" d="M543.33,610.68a5.93,5.93,0,0,1-4.08,7.45,6.19,6.19,0,0,1-7.7-4,5.93,5.93,0,0,1,4.09-7.45A6.19,6.19,0,0,1,543.33,610.68Z"></path> <path class="cls-65" d="M515.49,555.77a4.44,4.44,0,0,1-3.06,5.59,4.64,4.64,0,0,1-5.77-3,4.44,4.44,0,0,1,3.06-5.59A4.64,4.64,0,0,1,515.49,555.77Z"></path> <path class="cls-65" d="M573.39,558.09a4.45,4.45,0,0,1-3.06,5.59,4.66,4.66,0,0,1-5.77-3,4.45,4.45,0,0,1,3.06-5.59A4.64,4.64,0,0,1,573.39,558.09Z"></path> <path class="cls-65" d="M350.4,540.43a3.34,3.34,0,0,1-2.3,4.19,3.48,3.48,0,0,1-4.32-2.23,3.34,3.34,0,0,1,2.29-4.19A3.49,3.49,0,0,1,350.4,540.43Z"></path> <path class="cls-65" d="M339.7,588.06a3.34,3.34,0,0,1-2.3,4.19,3.48,3.48,0,0,1-4.32-2.23,3.33,3.33,0,0,1,2.29-4.19A3.49,3.49,0,0,1,339.7,588.06Z"></path> <path class="cls-65" d="M432,551.32a4.81,4.81,0,0,1-3.32,6,5,5,0,0,1-6.25-3.21,4.82,4.82,0,0,1,3.32-6A5,5,0,0,1,432,551.32Z"></path> <path class="cls-62" d="M467.74,624.81,474.5,617c-115.84-11.14-207.14-12-307.68-.91l-1.46,7.64C268.83,611.26,351.22,613.31,467.74,624.81Z"></path> <path class="cls-69" d="M588.13,547.49a6.34,6.34,0,0,0-2.79-1.42c-8.19-1.92-12.22-2.83-20.5-4.64a6.63,6.63,0,0,0-5.48,1.27,6.28,6.28,0,0,0-1.8,2.23V545a6.23,6.23,0,0,0-.69,2.72l-.21,10.4,0,2.92c-7-7.64-14.36-15.51-22.13-23.8a6.54,6.54,0,0,0-7.12-1.64,6.6,6.6,0,0,0-4.24,6s-.42,14.53-.42,14.55v.16a46.1,46.1,0,0,0-5.34-8.85c-7.3-9.29-16.5-14.72-27.33-16.14-11.12-1.46-21,1.83-28.68,9.51a34.27,34.27,0,0,0-5.66,7.8l-.14-3.9-.45-12.25a6.55,6.55,0,0,0-6.27-6.33c-14.78-.69-29.77-1.22-44.54-1.56a7.23,7.23,0,0,0-1.72.21,6.32,6.32,0,0,0-1.58-2,6.18,6.18,0,0,0-2.65-1.38,5.46,5.46,0,0,0-1-.18c-8.33-.79-12.4-1.14-20.7-1.79a6.53,6.53,0,0,0-5,1.69,6.22,6.22,0,0,0-1.43,1.91,6.4,6.4,0,0,0-.71,2.86l-.16,11.72s0,3.18,0,3.2c-7.63-7.11-15.25-14.18-22.8-21.11a6.56,6.56,0,0,0-10.08,1.46l-.18-.15-.07-.07a6.49,6.49,0,0,0-4.52-1.59c-14.77.56-29.78,1.31-44.61,2.23a4.93,4.93,0,0,0-1,.16H286a6.46,6.46,0,0,0-4.36-1.57h-.12c-18.34.59-36.94,1.49-55.3,2.68a6.57,6.57,0,0,0-6,5.18v.05a4.34,4.34,0,0,0-.09.52l-1.5,12.26-.13,1.07a34.13,34.13,0,0,0-33.12-16.67c-10.94,1-20.22,6.1-27.6,15.16a46,46,0,0,0-6.29,10.64c-.06-.26-.11-.53-.18-.79-.13-.54-.26-1.07-.42-1.59a23.26,23.26,0,0,0-2.07-5.11,20.57,20.57,0,0,0-9.16-8.8c-5.92-2.9-13.31-3.78-22-2.59a186.08,186.08,0,0,0-30.41,6.74L87,539l-.1-.09a6.63,6.63,0,0,0-5.42-1.2c-15.25,3.37-30.69,7-45.88,10.71a6.53,6.53,0,0,0-4.23,3.29v.08a6.07,6.07,0,0,0-.78,3.07L31.18,626a6.58,6.58,0,0,0,6.57,6.53,6.69,6.69,0,0,0,1.47-.16c9.22-2.13,13.74-3.13,23-5.09A6.57,6.57,0,0,0,67.4,621l.58-22.5c4.42-.85,7.84-1.49,13.34-2.5a6.45,6.45,0,0,0,2.81-1.27L85,617a6.56,6.56,0,0,0,6.57,6.33,6.72,6.72,0,0,0,1.26-.12c8.37-1.63,12.45-2.4,20.8-3.89A6.59,6.59,0,0,0,119,613l.07-3.65,5.7,7.07a6.59,6.59,0,0,0,9,1.15c8.21-6.11,12.23-9.06,20.43-15a6.41,6.41,0,0,0,1.89-2.16,32.3,32.3,0,0,0,2.39,2.57l.66.61h0l.25.23,0,0a44.15,44.15,0,0,0,3.51,3.11l1.3-6.95,3.26-3.92,2-2.38,1.26-1.53-.62,1.87.45,3.61-1.67,4.65-.55,7.16c5,2.7,7.9,2.7,14.25,2.7,1.37,0,2.78-.06,4.2-.19a40.69,40.69,0,0,0,27.38-13.52c7.71-8.57,11.22-22.3,11.21-31.43a41.28,41.28,0,0,0-.28-4.57c3-.19,5.44-.34,7.79-.47l1.86-.11c-5.2,11.6-10.61,23.69-16.37,36.66a6.37,6.37,0,0,0-.54,2,6.57,6.57,0,0,0,6.54,7.22h.37c17.58-1,35.39-1.73,53-2.19a6.53,6.53,0,0,0,4.39-1.85,6.5,6.5,0,0,0,5.39,2.81h.28c17.17-.75,32.9-1.17,48.09-1.3a6.49,6.49,0,0,0,1.8-.27,6.47,6.47,0,0,0,2.72.6h0c9.38,0,13.95,0,23.33.08h.08a6.57,6.57,0,0,0,6.56-6.31l.4-9.79c6.19,5.58,12.93,11.71,20.82,18.92a6.6,6.6,0,0,0,4.44,1.72,6.68,6.68,0,0,0,2.62-.54,7.45,7.45,0,0,0,1.39-.84,1.54,1.54,0,0,0,.19-.17l.16-.13a6.46,6.46,0,0,0,3.25,1c17.13.72,32.83,1.63,48,2.81l.5,0a6.57,6.57,0,0,0,6.58-6.93l-.29-5a37.37,37.37,0,0,0,2.35,3,42.84,42.84,0,0,0,12.12,9.78l3.77-5.59,2.91-4.3,1.76-2.6,3.53-5.24-.28,6.18-.15,3.1-.24,5.12-.34,7.35c1.32.3,2.67.53,4.05.71a46.15,46.15,0,0,0,5.89.4c8.89,0,16.6-2.85,22.53-8.36a33.12,33.12,0,0,0,5-5.91L521,615.76a6.57,6.57,0,0,0,5.71,6.7c9.37,1.25,13.91,1.88,23.16,3.27a6.56,6.56,0,0,0,7.53-6.2l.38-8.21c6.75,7.12,13.51,14.27,20.17,21.37a38,38,0,0,0,3.14,2.95,33.83,33.83,0,0,0,4.15,3.12,11.58,11.58,0,0,0,1.91,1c.59.23,1.67.64,2.08-.11a2,2,0,0,0,.17-.76,63.49,63.49,0,0,0-.09-8.16c0-.17,0-.33,0-.5,0-1.32,0-2.67.06-4v-.37l0-1.92,0-2.39c0-.94,0-1.88,0-2.81l0-3.18c0-1.17,0-2.34.05-3.5s0-2.51,0-3.77l.06-4c0-1.39,0-2.77,0-4.15l.06-4.27.06-4.33.06-4.34.07-4.3c0-1.41,0-2.81,0-4.22l.06-4.07.06-3.89c0-1.22,0-2.43.05-3.65l0-3.35c0-1,0-2,0-3l0-2.61,0-2.18,0-1.67c0-.38,0-.76,0-1.13,0-.18,0-.36,0-.53v0A6.57,6.57,0,0,0,588.13,547.49Zm-446,30.71c.48-.45.94-.91,1.39-1.38a36.06,36.06,0,0,0,3.29-4.06c0,.12,0,.23,0,.36a54.53,54.53,0,0,0,.81,8.26h0c.23,1.33.51,2.6.84,3.86C146.4,582.9,144.43,580.71,142.16,578.2Zm45.51-4.85a2.82,2.82,0,0,1-2.12,1.19c-.88.08-1.17-.24-1.28-.37a5.65,5.65,0,0,1-1.18-3.7q0-.39,0-.75a9.34,9.34,0,0,1,1.53-4.55,2.78,2.78,0,0,1,2-1.07h0l.26,0a1.45,1.45,0,0,1,.84.2,6.39,6.39,0,0,1,1.16,2.65,8.5,8.5,0,0,1,.2,1.84A7.5,7.5,0,0,1,187.67,573.35Zm93.25-7.3h-.34c-3.68.16-6.5.28-9.24.42.68-1.57,1.37-3.12,2.05-4.65,2.57-5.82,5.06-11.47,7.52-17v21.23Zm209.92,14.34a1.28,1.28,0,0,1-1.08.19,3.36,3.36,0,0,1-2.3-1.43A8,8,0,0,1,486,574.6v-.2a7.1,7.1,0,0,1,1.23-4.22,1.24,1.24,0,0,1,.64-.13l.34,0a3,3,0,0,1,2.16,1.27,9.9,9.9,0,0,1,1.39,3.29h0a10.79,10.79,0,0,1,.23,2.19A5.33,5.33,0,0,1,490.84,580.39Z"></path> <polygon class="cls-69" points="476.69 607.59 472.92 613.18 476.26 614.93 476.69 607.59"></polygon> <polygon class="cls-56" points="476.69 607.59 484.89 595.45 484.46 604.73 484.52 603.59 476.25 615.07 476.69 607.59"></polygon> <polygon class="cls-56" points="164.26 599.98 170.77 592.14 169.92 597.47 169.62 598.9 162.97 606.91 164.26 599.98"></polygon> <path class="cls-70" d="M584.24,541.51c-8.19-1.91-12.21-2.82-20.48-4.63l-6-1.31-.44,23.25c-7.83-8.51-16-17.28-24.69-26.56l-8.4-9-1,34.41h0c-.17-.54-.34-1.06-.55-1.59,0,0,0,0,0,0a49.2,49.2,0,0,0-7.29-13.77c-7-9-15.9-14.2-26.34-15.58a39.28,39.28,0,0,0-4.91-.32,30.74,30.74,0,0,0-22.5,9.41,33.52,33.52,0,0,0-6.11,8.86h0a44.19,44.19,0,0,0-1.9,4.4l-1-27.3L448,521.6c-14.77-.69-29.74-1.22-44.5-1.56L401,520l0-2.89-4.62-.43c-8.32-.78-12.38-1.13-20.69-1.79l-5.38-.42L370,538.21c-8.46-7.9-16.93-15.75-25.3-23.45l-8.23-7.57-.49,7.42-5,.19c-14.18.55-28.56,1.27-42.8,2.14l.7-1.57-8.07.27c-18.32.6-36.91,1.5-55.25,2.67l-4.19.27-2.73,22.31a.05.05,0,0,0,0,0,35.61,35.61,0,0,0-6.57-10,31.9,31.9,0,0,0-23.81-10.25c-1.14,0-2.32.05-3.49.16-10.52,1-19.45,5.88-26.56,14.61a46.86,46.86,0,0,0-7.31,13.34c-.4,1.1-.77,2.21-1.1,3.33q0-.72,0-1.44a22.58,22.58,0,0,0-.75-6c-.08-.36-.16-.7-.25-1-1.65-6.23-5.3-10.88-10.59-13.48a31.9,31.9,0,0,0-14.1-2.94,52.73,52.73,0,0,0-7,.49A185.52,185.52,0,0,0,87,534.29l-.12-2.43-5.85,1.29c-15.24,3.36-30.67,7-45.86,10.7l-3.88.95L32,626.27l6.14-1.41c9.24-2.13,13.75-3.13,23-5.09l3.91-.83.7-27.7c5-1,8.56-1.64,14.56-2.74l4.28-.78-.7-23.84.11,0,2,53,5.8-1.13c8.38-1.64,12.47-2.4,20.82-3.9l4.08-.74.25-11.94,8.31,10.3,3.05,3.79,3.91-2.91c8.22-6.11,12.24-9.06,20.44-15l3.46-2.52a32.25,32.25,0,0,0,2.77,3.07,28.76,28.76,0,0,0,5.45,4.15l3.26-3.92,2-2.38,1.26-1.53-.32,2-.53,3.32-1,4.8c4.27,1.88,7.77,2.31,13,2.31,1.31,0,2.68-.06,4-.18a39.25,39.25,0,0,0,26.39-13c7.44-8.27,10.83-21.55,10.82-30.4a43.09,43.09,0,0,0-.45-6h0l.26,0c5.53-.35,9.27-.57,13.48-.8-5.52,12.3-11.24,25.1-17.39,38.93l-3.37,7.58,8.28-.47c17.59-1,35.42-1.73,53-2.19l4.35-.12.41-3.28v4.58L287,599c16.94-.73,32.48-1.15,47.5-1.28V598l5.2,0,8.66,0c4.39,0,8.37,0,14.69.1l4.92.06.72-17.93c6.87,6.18,14.33,13,23.23,21.09l8.37,7.65.06-7.09L403,602c17.16.71,32.88,1.63,48,2.8l5.75.44-.93-17.13h0v0a37.2,37.2,0,0,0,5.34,8.25,40.66,40.66,0,0,0,15.5,11.22l2.91-4.3,1.76-2.6,3.53-5.24-.28,6.18-.15,3.1-.24,5.12c1,.21,2.08.38,3.15.52a42.23,42.23,0,0,0,5.65.38c8.5,0,16-2.74,21.54-7.94a32.76,32.76,0,0,0,7.74-11.11v0h0l-.63,22.67,4.52.6c9.32,1.24,13.87,1.88,23.18,3.28l5.54.83.8-17.37c7.55,7.94,15.13,16,22.62,24l8.57,9.14,1.3-92.32ZM118.12,557.72a2.17,2.17,0,0,1-1.44.86,1,1,0,0,1-.24,0,.53.53,0,0,1-.2,0,6,6,0,0,1-.27-2.12,5.08,5.08,0,0,1,.61-3,2.14,2.14,0,0,1,1.42-.87l.25,0a.38.38,0,0,1,.19,0,6.31,6.31,0,0,1,.28,2.13C118.73,556.9,118.22,557.6,118.12,557.72Zm25.43,19.1-4.29-4.76a31.87,31.87,0,0,0,7.9-10.19c.31-.64.61-1.29.87-2a43.52,43.52,0,0,0-.45,7.12,46,46,0,0,0,4.3,19.08l-4.23-4.73h0C146.24,579.8,144.91,578.33,143.55,576.82Zm45.37-9.89a8.16,8.16,0,0,1-.8,1.29,4.33,4.33,0,0,1-3.19,1.8l-.39,0a3,3,0,0,1-1.42-.32,2.61,2.61,0,0,1-.76-.58,7.12,7.12,0,0,1-1.55-4.7,11.08,11.08,0,0,1,1.84-6.18,4.24,4.24,0,0,1,3.11-1.7,2.68,2.68,0,0,1,.4,0,2.64,2.64,0,0,1,2,.74,9.62,9.62,0,0,1,.74,9.65Zm91-5.4c-4.79.2-8.11.35-11.69.54,4.68-10.64,9.13-20.7,13.46-30.44l0,29.83Zm53.26,3.6-.47-19.27h3l-.43,19.31Zm116.06-12.34,3.17.26h0a47.27,47.27,0,0,0-1.9,12.6,46.08,46.08,0,0,0,.52,6.54l-1.39-.14Zm42.53,21.85h0a4.51,4.51,0,0,1-.54.72,2.27,2.27,0,0,1-1.82.71l-.58,0A4.76,4.76,0,0,1,486,574.6a5.76,5.76,0,0,1-.5-.59,9.51,9.51,0,0,1-1.79-5.66,8.61,8.61,0,0,1,1.65-5.24,2.38,2.38,0,0,1,1.75-.61,4.71,4.71,0,0,1,.53,0,4.62,4.62,0,0,1,3.23,1.93,11.43,11.43,0,0,1,1.87,6.35A7.38,7.38,0,0,1,491.74,574.64Z"></path> <path class="cls-12" d="M59.73,569.68c.15-2.52.22-3.78.36-6.3,9.21-1.89,13.82-2.79,23-4.52-.4-8.3-.59-12.46-1-20.77q-22.92,5.05-45.72,10.67.28,35.58.56,71.16c9.23-2.11,13.85-3.13,23.09-5.1.28-11.1.42-16.66.71-27.76,7.43-1.47,11.15-2.18,18.6-3.53-.2-7.09-.3-10.63-.52-17.72C71.21,567.3,67.38,568.08,59.73,569.68Z"></path> <path class="cls-12" d="M131.79,571.35a29.07,29.07,0,0,0,10.84-11.73,20.13,20.13,0,0,0,2.12-9,17.61,17.61,0,0,0-.6-4.76q-1.74-8-8.16-11.2c-4.76-2.33-10.86-3-18.21-2a178.22,178.22,0,0,0-29.65,6.6q1.32,35.75,2.63,71.48c8.36-1.63,12.54-2.41,20.9-3.91.17-8.64.26-13,.45-21.58,6.8,8.35,10.21,12.56,17,21,8.19-6.09,12.28-9.11,20.49-15.08C142.5,583.19,138.92,579.23,131.79,571.35Zm-19-21.23a7.31,7.31,0,0,1,4.55-2.57,5.51,5.51,0,0,1,4.57,1.28c1.23,1.07,1.89,3,1.91,5.84s-.62,5-1.85,6.37a7.3,7.3,0,0,1-4.54,2.55,5.54,5.54,0,0,1-4.57-1.27c-1.24-1.05-1.9-3-1.91-5.82S111.52,551.54,112.75,550.12Z"></path> <path class="cls-12" d="M217.62,555.29c-.12-.81-.26-1.61-.45-2.44v0c-1.4-6.81-4.43-14-8.77-18.52a27.29,27.29,0,0,0-23.19-8.55c-9.15.83-16.88,5.12-23.1,12.77-5.92,7.26-9.68,19.17-9.47,28.4.24,10.06,3.29,19,9.7,25.26a25.18,25.18,0,0,0,5.19,3.86l2-2.38,1.26-1.53-.32,2-.51,3.15c4.74,2.21,9.51,2.6,15.54,2.06A34.23,34.23,0,0,0,208.56,588c6-6.68,9.53-18.45,9.52-27A38.16,38.16,0,0,0,217.62,555.29Zm-39.1.06a9.26,9.26,0,0,1,6.78-3.83,7.74,7.74,0,0,1,6.81,2.59,14.52,14.52,0,0,1,.06,17.14,9.39,9.39,0,0,1-6.78,3.81,7.92,7.92,0,0,1-6.81-2.56,12.16,12.16,0,0,1-2.83-8A16,16,0,0,1,178.52,555.35Z"></path> <path class="cls-12" d="M281,520.69q-27.57.9-55.1,2.67l-3.25,26.55c8.72-.56,13.08-.8,21.8-1.21Q234,571.89,223.66,595.14q26.57-1.5,53.15-2.2c1.31-10.55,2-15.82,3.29-26.36-8,.33-11.91.54-19.85,1Q270.57,544.12,281,520.69Z"></path> <path class="cls-12" d="M334.72,586.62v0c-.32-5.46-.56-9.67-1-16.39-9.77-.17-14.66-.21-24.43-.2-.11-2.61-.17-3.91-.28-6.51,7.6,0,11.4,0,19,.12l-.4-16.06c-7.48.09-11.23.16-18.72.35-.07-2.72-.1-4.08-.17-6.8,9.3-.19,14-.25,23.25-.29-.34-8.37-.51-12.56-.85-20.95q-22.26.87-44.46,2.24,0,35.89,0,71.81c15.94-.69,31.9-1.16,47.84-1.3h.48C335,590.37,334.82,588.43,334.72,586.62Z"></path> <path class="cls-12" d="M375.34,519.93l-.39,29.8Q358.21,534,341.32,518.49q-.78,34-1.54,68c0,2.13-.09,4.28-.14,6.41h.52c9,0,13.72,0,22.92.07.38-9.49.58-14.24,1-23.74q15.72,14,31.26,28.29.33-37.92.66-75.84C387.71,520.93,383.58,520.57,375.34,519.93Z"></path> <path class="cls-12" d="M450.19,577.2c-9.74-1-14.62-1.46-24.37-2.29-.11-2.61-.16-3.92-.26-6.54,7.57.65,11.37,1,18.94,1.74-.13-6.43-.2-9.65-.33-16.08-7.46-.55-11.21-.8-18.67-1.25-.06-2.72-.09-4.08-.16-6.81,9.28.6,13.92.93,23.2,1.69-.31-8.4-.46-12.6-.77-21q-22.2-1-44.39-1.56-.09,35.91-.19,71.81,24.12,1,48.21,2.81C450.92,590.71,450.68,586.21,450.19,577.2Z"></path> <path class="cls-12" d="M511.43,545.46c-6.21-7.9-13.9-12.5-23-13.69s-16.94,1.38-23.16,7.64-9.71,17.88-9.71,26.26c0,8.68,3.51,20.53,9.47,27.39a35.37,35.37,0,0,0,14.59,10.23l1.76-2.6,3.53-5.24-.28,6.18-.15,3.1c1.17.26,2.35.46,3.56.63,9.22,1.21,17.26-.83,23.09-6.26,6.4-6,9.47-14.8,9.71-24.87C521.05,564.89,517.28,552.9,511.43,545.46Zm-29.95,14.38a7.51,7.51,0,0,1,6.8-2.32,9.67,9.67,0,0,1,6.76,4.1,16.66,16.66,0,0,1,2.74,9.22,11.7,11.7,0,0,1-2.84,7.93,7.54,7.54,0,0,1-6.78,2.29,10,10,0,0,1-6.77-4.07,14.52,14.52,0,0,1-2.75-8.66A13.58,13.58,0,0,1,481.48,559.84Z"></path> <path class="cls-12" d="M562.68,541.83q-.28,14.86-.56,29.74-16.47-18-33.2-35.85-1,37.1-2.07,74.19c9.32,1.23,14,1.89,23.27,3.29.42-9.45.65-14.17,1.07-23.61Q566.68,605.8,582,622.16q.54-37.86,1.07-75.72C574.93,544.53,570.85,543.61,562.68,541.83Z"></path> <path class="cls-15" d="M76.14,576.56c-15.46,2.4-27.87,4.51-36.42,6L40,616.13c6.27-1.44,10.52-2.37,17.1-3.77l.7-27.81,2.39-.47c6.59-1.29,10.21-2,16.08-3.06Z"></path> <path class="cls-15" d="M76.27,581c-5.88,1.08-9.5,1.77-16.08,3.07l-2.39.46-.7,27.81c-6.58,1.41-10.83,2.34-17.1,3.78l-.28-33.57c8.55-1.5,21-3.6,36.42-6Z"></path> <path class="cls-15" d="M129.55,573.39l-2.41-2.66,2.91-1.86c-13.58,1.77-26.2,3.54-37.6,5.22l1.21,33c5.51-1.07,9.3-1.77,15-2.81l.56-27.36,5.22,6.4c6.21,7.64,9.55,11.75,15.21,18.76,5.88-4.36,9.67-7.15,15.46-11.37C139.44,584.35,136,580.48,129.55,573.39Z"></path> <path class="cls-15" d="M129.55,573.39l-2.41-2.66,2.91-1.86c-13.58,1.77-26.2,3.54-37.6,5.22l1.21,33c5.51-1.07,9.3-1.77,15-2.81l.56-27.36,5.22,6.4c6.21,7.64,9.55,11.75,15.21,18.76,5.88-4.36,9.67-7.15,15.46-11.37C139.44,584.35,136,580.48,129.55,573.39Z"></path> <path class="cls-15" d="M215,559.45q-8.67.76-17.12,1.62a14.59,14.59,0,0,1,.08,1.63,17,17,0,0,1-3.37,10.39,12.45,12.45,0,0,1-8.94,5c-.37,0-.75,0-1.12,0a10.82,10.82,0,0,1-8.23-3.62,15.1,15.1,0,0,1-3.59-10c0-.26,0-.52,0-.76-5.79.64-11.49,1.29-17,1.95,0,.41,0,.8,0,1.19.23,9.81,3.26,17.82,8.78,23.16a21.49,21.49,0,0,0,5,3.66l1.26-1.53-.62,1.87a26.84,26.84,0,0,0,11.75,2.48c1.08,0,2.18,0,3.31-.15a31.41,31.41,0,0,0,21.1-10.4c5.68-6.31,8.75-17.58,8.74-25C215.05,560.48,215,560,215,559.45Z"></path> <path class="cls-15" d="M215,559.45q-8.67.76-17.12,1.62a14.59,14.59,0,0,1,.08,1.63,17,17,0,0,1-3.37,10.39,12.45,12.45,0,0,1-8.94,5c-.37,0-.75,0-1.12,0a10.82,10.82,0,0,1-8.23-3.62,15.1,15.1,0,0,1-3.59-10c0-.26,0-.52,0-.76-5.79.64-11.49,1.29-17,1.95,0,.41,0,.8,0,1.19.23,9.81,3.26,17.82,8.78,23.16a21.49,21.49,0,0,0,5,3.66l1.26-1.53-.62,1.87a26.84,26.84,0,0,0,11.75,2.48c1.08,0,2.18,0,3.31-.15a31.41,31.41,0,0,0,21.1-10.4c5.68-6.31,8.75-17.58,8.74-25C215.05,560.48,215,560,215,559.45Z"></path> <path class="cls-15" d="M260.42,570.6l-4.94.28,2-4.53q2.36-5.39,4.66-10.59Q253,556.35,244,557c-5,11.07-10.09,22.55-15.56,34.81,15.19-.82,30.51-1.45,45.67-1.86l2.53-20.2C270.87,570,267.07,570.22,260.42,570.6Z"></path> <path class="cls-15" d="M276.64,569.77,274.11,590c-15.15.41-30.48,1-45.66,1.86C233.91,579.58,239,568.1,244,557q9-.69,18.13-1.28-2.29,5.21-4.67,10.6l-2,4.53,4.94-.29C267.06,570.22,270.87,570,276.64,569.77Z"></path> <path class="cls-15" d="M330.91,573.19c-7.77-.13-12.49-.17-20.65-.17h-3.82l-.56-12.58h4.63c5.56,0,9.12,0,14.44.08l-.19-7.67q-17.6.46-35,1.32l0,36.57c14.87-.62,28.7-1,42.07-1.13Z"></path> <path class="cls-15" d="M331.86,589.6c-13.38.14-27.2.52-42.08,1.14l0-36.57q17.39-.85,35-1.32l.19,7.67c-5.32-.06-8.88-.08-14.45-.08h-4.62l.56,12.58h3.82c8.15,0,12.88,0,20.65.16Z"></path> <path class="cls-15" d="M377.94,552.51l-4.53,0q-14.88-.18-29.81,0l-.84,37.4h5.57c3.7,0,7.11,0,11.85.07l1.08-27.22,4.79,4.28c7.9,7,16.17,14.5,26.28,23.73l.32-37.89C387.75,552.7,382.86,552.59,377.94,552.51Z"></path> <path class="cls-15" d="M392.65,552.84l-.33,37.89C382.22,581.5,374,574,366.05,567l-4.79-4.28-1.09,27.23c-4.73-.05-8.14-.07-11.84-.07h-5.58l.84-37.4q14.93-.19,29.82,0l4.48,4.19.05-4.14Q385.31,552.63,392.65,552.84Z"></path> <path class="cls-15" d="M447.3,580c-8.13-.82-12.88-1.26-21.73-2l-2.67-.23-.52-12.65,3.43.3c6.42.54,10.09.87,15.6,1.4l-.21-9.9c-5.74-.42-9.36-.65-15.89-1l-2.79-.17,0-1.52c-5.35-.32-10.73-.58-16.14-.81L406.24,594c14.85.64,28.63,1.44,41.95,2.43Z"></path> <path class="cls-15" d="M448.18,596.43c-13.31-1-27.1-1.79-41.95-2.44l.11-40.67q8.13.34,16.15.8l0,1.52,2.79.17c6.53.4,10.15.63,15.88,1.05l.22,9.9c-5.52-.54-9.18-.86-15.6-1.41l-3.43-.29.51,12.65,2.67.23c8.86.75,13.61,1.18,21.73,2Z"></path> <path class="cls-15" d="M517,565.85q-8.86-1.83-18-3.38a20.1,20.1,0,0,1,1.84,8.39,14.79,14.79,0,0,1-3.63,9.95,10.33,10.33,0,0,1-7.81,3.37,12.93,12.93,0,0,1-10.44-5.39,17.73,17.73,0,0,1-3.33-10.47,17.06,17.06,0,0,1,2.5-9q-9.12-1.22-18.45-2.19a38.3,38.3,0,0,0-1.07,8.52c0,7.45,3.05,18.88,8.71,25.4a32.59,32.59,0,0,0,14.06,9.62l3.53-5.24-.28,6.18a30.92,30.92,0,0,0,3.81.72,36.7,36.7,0,0,0,4.6.32c6.52,0,11.91-2,16-5.79,5.48-5.1,8.5-13,8.75-22.72A39.18,39.18,0,0,0,517,565.85Z"></path> <path class="cls-15" d="M517,565.85q-8.86-1.83-18-3.38a20.1,20.1,0,0,1,1.84,8.39,14.79,14.79,0,0,1-3.63,9.95,10.33,10.33,0,0,1-7.81,3.37,12.93,12.93,0,0,1-10.44-5.39,17.73,17.73,0,0,1-3.33-10.47,17.06,17.06,0,0,1,2.5-9q-9.12-1.22-18.45-2.19a38.3,38.3,0,0,0-1.07,8.52c0,7.45,3.05,18.88,8.71,25.4a32.59,32.59,0,0,0,14.06,9.62l3.53-5.24-.28,6.18a30.92,30.92,0,0,0,3.81.72,36.7,36.7,0,0,0,4.6.32c6.52,0,11.91-2,16-5.79,5.48-5.1,8.5-13,8.75-22.72A39.18,39.18,0,0,0,517,565.85Z"></path> <path class="cls-15" d="M565,578.81l-.58-.2h0C553.86,575,542.7,571.76,531,569L530,607.26c6.56.88,10.85,1.49,17.27,2.44l1.25-27.34,4.9,5.13c8.53,8.93,17.16,18,25.71,27.12l.43-30.31Q572.48,581.39,565,578.81Z"></path> <path class="cls-15" d="M579.52,584.3l-.42,30.31c-8.55-9.08-17.18-18.19-25.72-27.12l-4.89-5.13-1.25,27.33c-6.42-1-10.71-1.55-17.28-2.43L531,569c11.66,2.79,22.82,6,33.39,9.64h0l.57.62v-.42Q572.48,581.41,579.52,584.3Z"></path> <polygon class="cls-58" points="147.42 625.63 151.18 636.25 145.13 637.11 146.21 625.78 147.42 625.63"></polygon> <polygon class="cls-71" points="483.8 617.3 484 614.51 483.93 616.05 483.88 617.2 483.8 617.3"></polygon> <path class="cls-72" d="M476.26,614.94l-8.52,9.87,0,10h0l.16,0h0l-.16,0,7.07-9L484,614.1l.5-10.51Z"></path> <polygon class="cls-73" points="484.03 614.09 484 614.51 484.02 614.1 484.03 614.09"></polygon> </g> </g> </g> </svg> 